<svg width="46" height="45" viewBox="0 0 46 45" fill="none" xmlns="http://www.w3.org/2000/svg">
<rect x="0.5" width="45" height="45" rx="10" fill="url(#paint0_linear_506_4909)"/>
<path d="M20.0005 33H26.0005C31.0005 33 33.0005 31 33.0005 26V20C33.0005 15 31.0005 13 26.0005 13H20.0005C15.0005 13 13.0005 15 13.0005 20V26C13.0005 31 15.0005 33 20.0005 33Z" stroke="#E5E5E5" stroke-width="1.5" stroke-linecap="round" stroke-linejoin="round"/>
<path d="M27.9995 13.4399V23.4199C27.9995 25.3899 26.5895 26.1599 24.8595 25.1199L23.5395 24.3299C23.2395 24.1499 22.7595 24.1499 22.4595 24.3299L21.1395 25.1199C19.4095 26.1499 17.9995 25.3899 17.9995 23.4199V13.4399" stroke="#E5E5E5" stroke-width="1.5" stroke-linecap="round" stroke-linejoin="round"/>
<path d="M20.0005 33H26.0005C31.0005 33 33.0005 31 33.0005 26V20C33.0005 15 31.0005 13 26.0005 13H20.0005C15.0005 13 13.0005 15 13.0005 20V26C13.0005 31 15.0005 33 20.0005 33Z" stroke="#E5E5E5" stroke-width="1.5" stroke-linecap="round" stroke-linejoin="round"/>
<path d="M27.9995 13.4399V23.4199C27.9995 25.3899 26.5895 26.1599 24.8595 25.1199L23.5395 24.3299C23.2395 24.1499 22.7595 24.1499 22.4595 24.3299L21.1395 25.1199C19.4095 26.1499 17.9995 25.3899 17.9995 23.4199V13.4399" stroke="#E5E5E5" stroke-width="1.5" stroke-linecap="round" stroke-linejoin="round"/>
<defs>
<linearGradient id="paint0_linear_506_4909" x1="0.5" y1="22.5" x2="45.5" y2="22.5" gradientUnits="userSpaceOnUse">
<stop stop-color="#00C6FF"/>
<stop offset="1" stop-color="#0072FF"/>
</linearGradient>
</defs>
</svg>
