<svg width="46" height="45" viewBox="0 0 46 45" fill="none" xmlns="http://www.w3.org/2000/svg">
<rect x="0.5" width="45" height="45" rx="10" fill="url(#paint0_linear_506_4897)"/>
<path d="M28.9805 21.79V25.79C28.9805 26.05 28.9705 26.3 28.9405 26.54C28.7105 29.24 27.1205 30.58 24.1905 30.58H23.7905C23.5405 30.58 23.3005 30.7 23.1505 30.9L21.9505 32.5C21.4205 33.21 20.5605 33.21 20.0305 32.5L18.8305 30.9C18.7005 30.73 18.4105 30.58 18.1905 30.58H17.7905C14.6005 30.58 13.0005 29.79 13.0005 25.79V21.79C13.0005 18.86 14.3505 17.27 17.0405 17.04C17.2805 17.01 17.5305 17 17.7905 17H24.1905C27.3805 17 28.9805 18.6 28.9805 21.79Z" stroke="#E5E5E5" stroke-width="1.5" stroke-miterlimit="10" stroke-linecap="round" stroke-linejoin="round"/>
<path d="M32.9805 17.79V21.79C32.9805 24.73 31.6305 26.31 28.9405 26.54C28.9705 26.3 28.9805 26.05 28.9805 25.79V21.79C28.9805 18.6 27.3805 17 24.1905 17H17.7905C17.5305 17 17.2805 17.01 17.0405 17.04C17.2705 14.35 18.8605 13 21.7905 13H28.1905C31.3805 13 32.9805 14.6 32.9805 17.79Z" stroke="#E5E5E5" stroke-width="1.5" stroke-miterlimit="10" stroke-linecap="round" stroke-linejoin="round"/>
<path d="M24.495 24.25H24.504" stroke="#E5E5E5" stroke-width="2" stroke-linecap="round" stroke-linejoin="round"/>
<path d="M20.996 24.25H21.005" stroke="#E5E5E5" stroke-width="2" stroke-linecap="round" stroke-linejoin="round"/>
<path d="M17.4955 24.25H17.5045" stroke="#E5E5E5" stroke-width="2" stroke-linecap="round" stroke-linejoin="round"/>
<defs>
<linearGradient id="paint0_linear_506_4897" x1="0.5" y1="22.5" x2="45.5" y2="22.5" gradientUnits="userSpaceOnUse">
<stop stop-color="#00C6FF"/>
<stop offset="1" stop-color="#0072FF"/>
</linearGradient>
</defs>
</svg>
