<svg width="20" height="21" viewBox="0 0 20 21" fill="none" xmlns="http://www.w3.org/2000/svg">
<path d="M18.3084 15.775C18.3084 16.075 18.2417 16.3834 18.1 16.6834C17.9584 16.9834 17.775 17.2667 17.5334 17.5334C17.125 17.9834 16.675 18.3084 16.1667 18.5167C15.6667 18.725 15.125 18.8334 14.5417 18.8334C13.6917 18.8334 12.7834 18.6334 11.825 18.225C10.8667 17.8167 9.90835 17.2667 8.95835 16.575C8.00002 15.875 7.09169 15.1 6.22502 14.2417C5.36669 13.375 4.59169 12.4667 3.90002 11.5167C3.21669 10.5667 2.66669 9.61669 2.26669 8.67502C1.86669 7.72502 1.66669 6.81669 1.66669 5.95002C1.66669 5.38335 1.76669 4.84169 1.96669 4.34169C2.16669 3.83335 2.48335 3.36669 2.92502 2.95002C3.45835 2.42502 4.04169 2.16669 4.65835 2.16669C4.89169 2.16669 5.12502 2.21669 5.33335 2.31669C5.55002 2.41669 5.74169 2.56669 5.89169 2.78335L7.82502 5.50835C7.97502 5.71669 8.08335 5.90835 8.15835 6.09169C8.23335 6.26669 8.27502 6.44169 8.27502 6.60002C8.27502 6.80002 8.21669 7.00002 8.10002 7.19169C7.99169 7.38335 7.83335 7.58335 7.63335 7.78335L7.00002 8.44169C6.90835 8.53335 6.86669 8.64169 6.86669 8.77502C6.86669 8.84169 6.87502 8.90002 6.89169 8.96669C6.91669 9.03335 6.94169 9.08335 6.95835 9.13335C7.10835 9.40835 7.36669 9.76669 7.73335 10.2C8.10835 10.6334 8.50835 11.075 8.94169 11.5167C9.39169 11.9584 9.82502 12.3667 10.2667 12.7417C10.7 13.1084 11.0584 13.3584 11.3417 13.5084C11.3834 13.525 11.4334 13.55 11.4917 13.575C11.5584 13.6 11.625 13.6084 11.7 13.6084C11.8417 13.6084 11.95 13.5584 12.0417 13.4667L12.675 12.8417C12.8834 12.6334 13.0834 12.475 13.275 12.375C13.4667 12.2584 13.6584 12.2 13.8667 12.2C14.025 12.2 14.1917 12.2334 14.375 12.3084C14.5584 12.3834 14.75 12.4917 14.9584 12.6334L17.7167 14.5917C17.9334 14.7417 18.0834 14.9167 18.175 15.125C18.2584 15.3334 18.3084 15.5417 18.3084 15.775Z" stroke="white" stroke-width="2" stroke-miterlimit="10"/>
</svg>
