<svg width="24" height="24" viewBox="0 0 24 24" fill="none" xmlns="http://www.w3.org/2000/svg">
<path fill-rule="evenodd" clip-rule="evenodd" d="M1.64914 10.3326C8.09138 6.94583 12.3875 4.71286 14.5374 3.63368C20.6761 0.552139 21.9503 0.0163162 22.7823 0.000490261C23.0877 -0.0082552 23.3875 0.100198 23.6386 0.310227C23.8142 0.49503 23.9265 0.752166 23.9534 1.03144C23.9981 1.37911 24.0107 1.73171 23.9909 2.08274C23.6573 6.29922 22.2182 16.5318 21.4856 21.2525C21.1764 23.2511 20.5674 23.9226 19.9753 23.9881C18.6917 24.1306 17.7173 22.964 16.4749 21.9805C14.5299 20.4431 13.43 19.4936 11.543 17.9833C9.35998 16.2492 10.7747 15.2951 12.0189 13.7374C12.345 13.3282 17.9984 7.12217 18.1089 6.55922C18.1231 6.47656 18.1212 6.39105 18.1033 6.30945C18.0854 6.22784 18.0521 6.15236 18.0059 6.08896C17.9387 6.03669 17.8622 6.00449 17.7827 5.99505C17.7032 5.98561 17.6229 5.99921 17.5486 6.0347C17.3538 6.08896 14.2463 8.56686 8.22631 13.4684C7.34311 14.2009 6.54422 14.5574 5.82966 14.5378C5.0389 14.5174 3.5211 13.9997 2.39305 13.5566C1.01016 13.014 -0.0897765 12.7268 0.0057891 11.8044C0.0545088 11.3221 0.602286 10.8315 1.64914 10.3326Z" fill="#E5E5E5"/>
</svg>
