<svg width="15" height="18" viewBox="0 0 15 18" fill="none" xmlns="http://www.w3.org/2000/svg">
<path d="M2.49833 1.57007H12.4054C13.2321 1.57007 13.9037 2.24173 13.9037 3.0684V4.72174C13.9037 5.32882 13.5292 6.07799 13.1546 6.45257L9.92542 9.30715C9.47333 9.68174 9.17625 10.4309 9.17625 11.038V14.2672C9.17625 14.7192 8.87917 15.3134 8.50458 15.5459L7.45833 16.2047C6.47667 16.8117 5.13333 16.1272 5.13333 14.9259V10.9476C5.13333 10.418 4.83625 9.74632 4.52625 9.37173L1.67167 6.36215C1.29708 6.00048 1 5.3159 1 4.86382V3.1459C1 2.24173 1.67167 1.57007 2.49833 1.57007Z" stroke="#525760" stroke-width="1.5" stroke-miterlimit="10" stroke-linecap="round" stroke-linejoin="round"/>
</svg>
