<svg  width="60" height="51" viewBox="0 0 60 51" fill="none" xmlns="http://www.w3.org/2000/svg">
<path d="M40.4943 31.5883C37.2591 31.0858 33.99 30.8232 30.7148 30.8026C30.6125 30.8026 30.5144 30.8426 30.4421 30.9137C30.3698 30.9848 30.3291 31.0813 30.3291 31.1819V41.7754C30.3286 41.8301 30.34 41.8843 30.3628 41.9343C30.3855 41.9842 30.4189 42.0287 30.4608 42.0648C30.5027 42.1008 30.552 42.1275 30.6053 42.143C30.6587 42.1586 30.7148 42.1625 30.7699 42.1547C35.3153 41.6941 39.172 37.6572 40.8249 32.0489C40.8369 31.9971 40.8376 31.9433 40.8271 31.8912C40.8166 31.839 40.795 31.7897 40.7639 31.7462C40.7327 31.7028 40.6926 31.6663 40.6462 31.6391C40.5997 31.6119 40.548 31.5946 40.4943 31.5883Z" fill="white"/>
<path d="M34.9313 10.2662C38.4412 12.5989 40.9065 16.1679 41.8183 20.2365C41.8249 20.276 41.8395 20.3137 41.8612 20.3475C41.883 20.3812 41.9114 20.4104 41.9448 20.4331C41.9782 20.4559 42.0159 20.4718 42.0557 20.4799C42.0955 20.488 42.1366 20.4882 42.1764 20.4804C46.2776 19.8481 50.2548 18.5961 53.9669 16.7686C54.007 16.7382 54.0394 16.6992 54.0617 16.6546C54.084 16.61 54.0956 16.5609 54.0956 16.5112C54.0956 16.4615 54.084 16.4124 54.0617 16.3678C54.0394 16.3232 54.007 16.2842 53.9669 16.2538C53.0113 15.4401 51.9885 14.7061 50.9091 14.0593C49.2306 13.1611 47.4801 12.4 45.675 11.7834V8.34256C45.7459 7.70395 46.0452 7.11089 46.5195 6.66922C46.9938 6.22754 47.6123 5.966 48.2645 5.93125H50.3582C50.5507 5.93138 50.7359 5.85804 50.8746 5.72666C51.0133 5.59527 51.0948 5.4161 51.1019 5.22682V1.217C51.0948 1.02772 51.0133 0.848546 50.8746 0.717165C50.7359 0.585784 50.5507 0.512443 50.3582 0.512573H36.2811C36.0912 0.512573 35.909 0.58679 35.7747 0.718895C35.6404 0.851001 35.5649 1.03018 35.5649 1.217V5.09135C35.5649 5.27818 35.6404 5.45735 35.7747 5.58946C35.909 5.72156 36.0912 5.79578 36.2811 5.79578H38.5676C39.2544 5.79578 39.9131 6.0641 40.3987 6.54171C40.8843 7.01933 41.1571 7.66711 41.1571 8.34256V9.45338V10.6184C39.2033 10.1954 37.2255 9.88779 35.2343 9.69722C35.1576 9.67207 35.0739 9.67793 35.0016 9.71349C34.9292 9.74906 34.8742 9.81143 34.8487 9.88688C34.8231 9.96233 34.829 10.0447 34.8652 10.1158C34.9014 10.1869 34.9648 10.241 35.0415 10.2662M44.3252 8.34256V11.3499H43.7191V7.88197C43.7968 7.23953 44.0542 6.63091 44.4628 6.12385C44.8713 5.6168 45.4149 5.23123 46.0331 5.01007C45.4747 5.37558 45.0166 5.87095 44.6995 6.45226C44.3823 7.03356 44.2159 7.68285 44.215 8.34256M39.6695 4.25146H36.9148V1.94852H49.5868V4.25146H47.135C46.3254 4.25144 45.5341 4.48849 44.862 4.9324C44.1899 5.37631 43.6673 6.00698 43.361 6.74405C43.0658 6.00483 42.5498 5.37093 41.881 4.92595C41.2122 4.48097 40.4219 4.24581 39.6145 4.25146M40.4684 4.92879C41.196 5.1145 41.8433 5.52571 42.3147 6.10152C42.7861 6.67733 43.0563 7.38713 43.0855 8.12581V11.1332L42.4519 10.9706V9.69722V8.34256C42.4472 7.65392 42.2622 6.97809 41.9148 6.38017C41.5674 5.78225 41.0693 5.28241 40.4684 4.92879Z" fill="white"/>
<path d="M30.6046 21.537C34.1026 21.5189 37.5937 21.229 41.0453 20.67C39.475 14.4656 35.2877 9.96811 30.3291 9.83264V21.266C30.3291 21.3379 30.3581 21.4068 30.4098 21.4576C30.4614 21.5084 30.5315 21.537 30.6046 21.537Z" fill="white"/>
<path d="M55.3423 17.2019C55.2482 17.1413 55.1381 17.109 55.0255 17.109C54.913 17.109 54.8029 17.1413 54.7087 17.2019C50.9277 19.1969 46.844 20.5783 42.6152 21.293C42.4734 21.3194 42.3477 21.3995 42.2653 21.516C42.1829 21.6325 42.1502 21.7762 42.1744 21.9161C42.4213 23.2661 42.5412 24.6356 42.5325 26.0072C42.5428 27.5173 42.3951 29.0244 42.0918 30.5047C42.0676 30.6447 42.1002 30.7884 42.1827 30.9049C42.2651 31.0214 42.3907 31.1015 42.5325 31.1279C46.6858 31.8244 50.7018 33.1593 54.4333 35.0835C54.5201 35.1494 54.6266 35.1852 54.7363 35.1852C54.8459 35.1852 54.9525 35.1494 55.0393 35.0835C56.4638 34.0251 57.6324 32.6697 58.4612 31.1145C59.2899 29.5592 59.7583 27.8429 59.8326 26.0885C59.7594 24.3998 59.321 22.7458 58.5468 21.2369C57.7725 19.7279 56.6801 18.3985 55.3423 17.3374" fill="white"/>
<path d="M30.7146 29.9625C34.0819 29.9921 37.4425 30.2637 40.7696 30.7753C40.8186 30.7872 40.8697 30.7887 40.9194 30.7797C40.9691 30.7708 41.0163 30.7516 41.0579 30.7235C41.0995 30.6954 41.1346 30.6589 41.1609 30.6164C41.1872 30.574 41.204 30.5266 41.2103 30.4773C41.523 28.9887 41.68 27.4726 41.6787 25.9527C41.6862 24.5721 41.5664 23.1937 41.3205 21.8345C41.3005 21.7384 41.2434 21.6537 41.1612 21.5981C41.079 21.5425 40.9782 21.5204 40.8798 21.5365C37.5257 22.0573 34.1375 22.338 30.7421 22.3764C30.6915 22.3764 30.6413 22.3862 30.5945 22.4052C30.5477 22.4243 30.5052 22.4522 30.4694 22.4875C30.4336 22.5227 30.4052 22.5645 30.3858 22.6105C30.3664 22.6565 30.3564 22.7059 30.3564 22.7557V29.5832C30.3564 29.6838 30.3971 29.7803 30.4694 29.8514C30.5417 29.9225 30.6398 29.9625 30.7421 29.9625" fill="white"/>
<path d="M53.7185 35.5715C50.0336 33.7429 46.0849 32.4819 42.0106 31.8326C41.9817 31.8245 41.9514 31.8224 41.9215 31.8263C41.8917 31.8302 41.863 31.84 41.8372 31.8553C41.8113 31.8705 41.789 31.8908 41.7714 31.9148C41.7539 31.9389 41.7416 31.9662 41.7352 31.9952C40.7772 36.0523 38.2339 39.5756 34.6553 41.803C34.6164 41.8336 34.5878 41.8752 34.5733 41.9221C34.5587 41.969 34.5589 42.0191 34.5738 42.0659C34.5886 42.1128 34.6175 42.1541 34.6567 42.1845C34.6958 42.2149 34.7433 42.233 34.7931 42.2365C36.446 42.101 38.0713 41.8572 39.6415 41.5862C38.8976 42.6197 37.91 43.4603 36.7633 44.036C35.6165 44.6117 34.345 44.9053 33.0576 44.8916H32.5617C31.2285 44.8673 29.9232 44.5117 28.7673 43.858C27.6113 43.2043 26.6422 42.2737 25.9502 41.1527C26.9309 41.646 27.9954 41.9583 29.0907 42.0739C29.1436 42.0776 29.1967 42.0706 29.2467 42.0532C29.2967 42.0358 29.3426 42.0085 29.3814 41.9729C29.4201 41.9373 29.451 41.8942 29.4721 41.8463C29.4932 41.7984 29.504 41.7468 29.5039 41.6946V31.1824C29.4969 31.0793 29.4503 30.9828 29.3735 30.9124C29.2968 30.8419 29.1956 30.8028 29.0907 30.8031C27.6306 30.8031 26.1706 30.8031 24.7381 30.9656V30.1528C26.1706 30.1528 27.4929 29.9903 29.1182 29.9632C29.1688 29.9632 29.219 29.9534 29.2658 29.9343C29.3126 29.9152 29.3551 29.8873 29.3909 29.8521C29.4267 29.8168 29.4551 29.775 29.4745 29.729C29.4939 29.683 29.5039 29.6337 29.5039 29.5839V22.7563C29.5039 22.7065 29.4939 22.6572 29.4745 22.6112C29.4551 22.5652 29.4267 22.5233 29.3909 22.4881C29.3551 22.4529 29.3126 22.425 29.2658 22.4059C29.219 22.3868 29.1688 22.377 29.1182 22.377C27.548 22.3499 26.1706 22.1874 24.7932 22.1874V21.3475C26.2532 21.3475 27.7408 21.51 29.2284 21.5371C29.2704 21.5409 29.3128 21.536 29.3528 21.5227C29.3928 21.5094 29.4296 21.4881 29.4607 21.46C29.4918 21.432 29.5166 21.3978 29.5336 21.3598C29.5505 21.3217 29.5591 21.2806 29.559 21.2391V9.72442C27.8477 9.8205 26.1974 10.3834 24.7932 11.35V8.34266C24.8632 7.7084 25.1585 7.11879 25.6272 6.67768C26.0959 6.23658 26.7078 5.97228 27.3551 5.93135H29.4212C29.5397 5.95506 29.6622 5.95002 29.7782 5.91667C29.8943 5.88332 30.0003 5.82265 30.0871 5.73994C30.1739 5.65722 30.2389 5.55493 30.2765 5.44194C30.3141 5.32895 30.3231 5.20865 30.3028 5.09146V1.21711C30.3006 1.11079 30.275 1.0062 30.2275 0.910641C30.1801 0.815078 30.1121 0.730834 30.0281 0.663777C29.9442 0.59672 29.8465 0.548463 29.7416 0.522368C29.6368 0.496273 29.5275 0.492966 29.4212 0.512679H8.42968C8.23709 0.512549 8.05196 0.58589 7.91324 0.717271C7.77452 0.848652 7.69302 1.02783 7.68588 1.21711V5.09146C7.66992 5.1962 7.67728 5.3031 7.70744 5.40477C7.7376 5.50644 7.78985 5.60046 7.86058 5.68033C7.93131 5.76019 8.01882 5.824 8.11708 5.86734C8.21534 5.91068 8.322 5.93252 8.42968 5.93135H10.4682C10.8219 5.9091 11.1765 5.9585 11.51 6.07649C11.8435 6.19447 12.1489 6.37854 12.4071 6.61728C12.6653 6.85603 12.871 7.14437 13.0114 7.46445C13.1517 7.78454 13.2237 8.12955 13.223 8.47813V9.50768V12.2983C11.7488 12.7815 10.3125 13.3701 8.92554 14.0594C7.88556 14.6196 6.88265 15.244 5.92281 15.9288C5.87149 15.9667 5.82984 16.0157 5.80115 16.0722C5.77246 16.1286 5.75752 16.1908 5.75752 16.2539C5.75752 16.317 5.77246 16.3792 5.80115 16.4357C5.82984 16.4921 5.87149 16.5412 5.92281 16.579C8.18958 17.8119 10.5928 18.7846 13.0853 19.478V20.2908C10.1974 19.5307 7.42013 18.4108 4.82089 16.9584C3.40103 18.0231 2.23419 19.3794 1.40162 20.9329C0.569042 22.4863 0.0907354 24.1996 0 25.9534C0.0835514 27.7259 0.563897 29.4584 1.40676 31.0274C2.24961 32.5963 3.43421 33.9629 4.87599 35.0296C4.93894 35.078 5.01651 35.1042 5.09637 35.1042C5.17624 35.1042 5.25381 35.078 5.31676 35.0296C7.77987 33.7363 10.3867 32.7271 13.0853 32.0223V33.0247C10.7518 33.6412 8.48993 34.4947 6.33603 35.5715C6.27898 35.6052 6.23178 35.6529 6.19901 35.7098C6.16624 35.7668 6.14901 35.8312 6.14901 35.8966C6.14901 35.9621 6.16624 36.0264 6.19901 36.0834C6.23178 36.1404 6.27898 36.188 6.33603 36.2217C7.21656 36.8232 8.13687 37.3662 9.09083 37.8473C10.7271 38.7386 12.4421 39.4822 14.2147 40.069H14.4627C15.7044 43.1463 17.8572 45.786 20.6422 47.6458C23.4272 49.5057 26.716 50.5 30.0824 50.4999H30.3028C33.4722 50.4919 36.5619 49.5223 39.1502 47.7234C41.7386 45.9244 43.6995 43.3839 44.7654 40.4483C46.8857 39.8034 48.9346 38.9502 50.8811 37.9015C51.8432 37.3837 52.7641 36.795 53.6359 36.1405C53.67 36.1182 53.6979 36.088 53.7173 36.0526C53.7366 36.0171 53.7468 35.9775 53.7468 35.9373C53.7468 35.897 53.7366 35.8574 53.7173 35.8219C53.6979 35.7865 53.67 35.7563 53.6359 35.7341M23.3331 8.64069V9.67024V37.1158C23.3331 39.5589 24.3199 41.902 26.0765 43.6295C27.833 45.357 30.2153 46.3276 32.6994 46.3276H33.0576C34.7721 46.312 36.4495 45.8339 37.9068 44.9453C39.3641 44.0567 40.5454 42.7917 41.3219 41.2882H41.6801C40.7237 43.2712 39.2134 44.9457 37.3257 46.1163C35.438 47.2869 33.2506 47.9052 31.019 47.899H30.7711C27.6583 47.8068 24.7075 46.5127 22.5576 44.2969C20.4077 42.081 19.2315 39.1216 19.2836 36.0592V9.3993C19.2828 8.21258 19.7506 7.07193 20.5882 6.21776C21.4259 5.3636 22.568 4.86266 23.7739 4.82052H25.4543C24.8014 5.15891 24.2541 5.66526 23.8708 6.28555C23.4876 6.90585 23.2827 7.61683 23.278 8.34266M9.14592 4.25156V1.94863H28.705V4.25156H23.7739C22.6948 4.25461 21.6433 4.58735 20.7648 5.20377C19.8864 5.82019 19.2244 6.68983 18.8704 7.69242C18.5164 6.68983 17.8544 5.82019 16.9759 5.20377C16.0974 4.58735 15.0459 4.25461 13.9668 4.25156H9.14592ZM30.3028 48.9556H29.8895C25.8175 48.9484 21.9147 47.3525 19.0379 44.5181C16.1611 41.6836 14.5453 37.8424 14.5453 33.8375V9.69733V8.34266C14.5407 7.61683 14.3358 6.90585 13.9525 6.28555C13.5692 5.66526 13.022 5.15891 12.369 4.82052H13.9668C15.1706 4.82724 16.3244 5.29501 17.1833 6.12457C18.0422 6.95414 18.5387 8.08021 18.5673 9.26384V36.0592C18.5746 39.2977 19.8859 42.4015 22.2143 44.6915C24.5427 46.9815 27.6986 48.2711 30.9915 48.2783H31.2394C33.6627 48.2872 36.0348 47.5928 38.0586 46.2819C40.0824 44.971 41.668 43.102 42.6167 40.9089H43.0299C41.9528 43.3363 40.1757 45.4 37.9186 46.8446C35.6615 48.2892 33.0233 49.0514 30.3303 49.0369" fill="white"/>
</svg>
