<svg width="312" height="50" viewBox="0 0 312 50" fill="none" xmlns="http://www.w3.org/2000/svg">
<path d="M50.7711 0H36.7823C36.3826 0 36.0629 0.317166 36.0629 0.713624V4.57909C36.0629 4.97224 36.3826 5.29271 36.7823 5.29271C36.8023 5.29271 36.8189 5.2861 36.8422 5.2861C36.8622 5.2861 36.8789 5.29271 36.9022 5.29271H38.9272C40.3561 5.29271 41.5152 6.44574 41.5152 7.85978V9.94118C42.0015 10.0436 42.4844 10.1559 42.9574 10.2782V7.85978C42.9574 6.4061 42.1713 5.13743 40.9989 4.43702C42.4544 4.80375 43.5369 6.08893 43.5869 7.63512C43.5869 7.67146 43.5802 7.7045 43.5802 7.74414V10.4401C43.78 10.4929 43.9765 10.5491 44.1764 10.6052V7.39063C44.3163 6.05589 45.2355 4.94911 46.4745 4.51962C45.3788 5.23655 44.6527 6.46557 44.6527 7.85978V9.18791C44.6527 9.18791 44.6527 9.21764 44.6527 9.23086V10.7374C45.1423 10.8795 45.6252 11.0314 46.0948 11.19V8.95334C46.0948 8.95334 46.0882 8.92691 46.0882 8.91369V7.85647C46.0882 6.43914 47.2506 5.28941 48.6761 5.28941H50.7012C50.7012 5.28941 50.7245 5.28941 50.7311 5.28941C50.7411 5.28941 50.7545 5.28941 50.7644 5.28941C51.1608 5.28941 51.4839 4.96894 51.4839 4.57578V0.716928C51.4839 0.32047 51.1608 0.00330381 50.7644 0.00330381L50.7711 0ZM50.0483 3.75313H47.6036C45.9183 3.75313 44.4728 4.78723 43.8766 6.25082C43.2804 4.79053 41.8349 3.75313 40.1496 3.75313H37.505V1.43055H50.0517V3.75644L50.0483 3.75313Z" fill="white"/>
<path d="M43.4712 40.4321C41.2763 45.3416 36.3369 48.5661 30.8546 48.5661H30.4616C24.5397 48.5661 19.3904 45.2094 16.8491 40.3132C15.7733 38.2351 15.1638 35.886 15.1638 33.3917V7.86308C15.1638 6.33011 14.2912 5.00198 13.0122 4.3313H14.5876C17.0856 4.3313 19.1207 6.3202 19.174 8.78154C19.174 8.81788 19.174 8.85092 19.174 8.88726V10.9125C19.174 10.9323 19.1806 10.9488 19.1806 10.9654V35.635C19.1806 37.6205 19.6602 39.4971 20.5096 41.1556C22.5446 45.1334 26.7113 47.8657 31.5108 47.8657H31.7539C36.6933 47.8657 41.0831 45.0046 43.0515 40.5411C42.815 40.6006 42.5752 40.6601 42.3321 40.7129C40.377 44.7337 36.3136 47.2941 31.7539 47.2941H31.5108C27.0943 47.2941 23.244 44.8658 21.2323 41.2845C20.2931 39.6094 19.7602 37.6833 19.7602 35.635V8.88396C19.7602 8.84762 19.7535 8.81458 19.7535 8.77824C19.8101 6.3169 21.8452 4.328 24.3398 4.328H26.0118C24.7328 4.99867 23.8602 6.33011 23.8602 7.85978V36.6889C23.8602 38.5919 24.4464 40.3627 25.4456 41.8362C27.1176 44.2976 29.952 45.9197 33.1661 45.9197H33.6557C37.1829 45.9197 40.3603 43.9837 41.9591 40.8616C41.9691 40.8385 41.979 40.8186 41.9857 40.7955C41.3595 40.9376 40.7234 41.0697 40.0806 41.1887C38.6217 43.2502 36.2503 44.4892 33.6557 44.4892H33.1661C30.8846 44.4892 28.8296 43.5212 27.394 41.9783C27.061 41.6182 26.7612 41.2316 26.4981 40.8186C27.484 41.3109 28.5265 41.6347 29.6156 41.7371C29.8388 41.7602 30.0286 41.5818 30.0286 41.3605V30.7321C30.0286 30.5206 29.8521 30.3455 29.6356 30.3488C28.1734 30.3654 26.7279 30.4281 25.3024 30.5339V29.7046C26.7312 29.6022 28.1801 29.5361 29.6489 29.5196C29.8587 29.5196 30.0286 29.3511 30.0286 29.143V22.2842C30.0286 22.0761 29.8587 21.9076 29.6489 21.9043C28.1834 21.8878 26.7346 21.825 25.3024 21.7226V20.8933C26.7512 20.9957 28.2234 21.0618 29.7122 21.0783C29.8854 21.0783 30.0286 20.9396 30.0286 20.7678V9.23086C28.5831 9.30354 27.2009 9.74956 25.9352 10.4929C25.7221 10.6185 25.5122 10.7506 25.3057 10.8927V7.85978C25.3057 6.44244 26.4681 5.29271 27.897 5.29271H29.922C29.922 5.29271 29.9353 5.29271 29.9453 5.29271C29.9553 5.29271 29.9587 5.29271 29.9687 5.29271C30.3683 5.29271 30.6881 4.97224 30.6881 4.57909V0.716928C30.6881 0.32047 30.3683 0 29.9687 0H9.09202C8.69234 0 8.36926 0.32047 8.36926 0.716928V4.57909C8.36926 4.97224 8.69234 5.29271 9.09202 5.29271H11.1304C12.5592 5.29271 13.7216 6.44574 13.7216 7.85978V8.87735C13.7216 8.87735 13.7216 8.88396 13.7216 8.89057V11.8012C12.2628 12.353 10.8773 12.9807 9.59162 13.6811C8.50582 14.2758 7.51328 14.9068 6.61733 15.5676C6.39418 15.7361 6.42748 16.0731 6.67062 16.2052C6.79053 16.2713 6.91043 16.3341 7.03367 16.3968C8.95546 17.3946 11.2203 18.2503 13.7216 18.9474V19.8064C10.9072 19.0366 8.38259 18.0719 6.2776 16.9354C6.00449 16.79 5.7347 16.638 5.47158 16.486C2.37739 19.1357 0.722046 22.238 0.722046 25.4988C0.722046 25.6244 0.722046 25.7466 0.728707 25.8722C0.851942 29.0339 2.52727 32.0272 5.55818 34.5942C5.68141 34.6967 5.85461 34.7132 5.9945 34.6339C8.15277 33.4313 10.7807 32.4137 13.7183 31.6076V32.4666C11.2037 33.167 8.93215 34.0293 7.00369 35.0304C6.74723 35.1658 6.72391 35.516 6.96039 35.6845C7.76308 36.2561 8.63905 36.8045 9.58829 37.3232C11.1504 38.1723 12.8523 38.9156 14.6676 39.5467C14.7542 39.5764 14.8374 39.5698 14.914 39.5467C14.944 39.6194 14.974 39.692 15.0073 39.7647C17.5286 45.7645 23.5038 49.9999 30.4583 49.9999H30.8513C37.2995 49.9999 43.0715 45.9528 45.2198 39.9332C44.6502 40.1116 44.0607 40.2768 43.4645 40.4354L43.4712 40.4321ZM9.81477 3.75644V1.43055H29.2459V3.75644H24.3432C22.0883 3.75644 20.1732 5.1969 19.4637 7.19571C18.761 5.1969 16.8425 3.75644 14.5876 3.75644H9.81144H9.81477Z" fill="white"/>
<path d="M32.6758 27.6037C32.5493 27.6566 32.4793 27.7128 32.466 27.7757C32.4593 27.8088 32.5026 27.8484 32.5959 27.8915C32.6892 27.9345 32.7624 27.9609 32.8191 27.9742C32.8623 27.9841 32.9023 27.9907 32.9456 28.0006C32.9789 27.994 32.9956 27.9742 33.0056 27.9411V27.8551L33.0256 27.468C32.9223 27.5077 32.8057 27.554 32.6792 27.607L32.6758 27.6037Z" fill="white"/>
<path d="M38.114 20.3125C38.124 20.3952 38.1574 20.4514 38.2073 20.4878C38.2639 20.5275 38.3339 20.5275 38.3805 20.5209C38.5937 20.4944 38.6969 20.3422 38.7236 20.2198C38.7302 20.1901 38.7236 20.157 38.7236 20.1371L38.6903 19.8956C38.4271 19.932 38.2439 20.0048 38.1607 20.1107C38.1174 20.1669 38.1007 20.2331 38.1107 20.3125H38.114Z" fill="white"/>
<path d="M44.0625 24.4581L44.7286 24.4911C44.4922 24.24 44.279 23.9394 44.1058 23.6123L44.0625 24.4581Z" fill="white"/>
<path d="M46.5853 16.5324C46.7152 16.3044 46.7519 16.0897 46.6986 15.8947C46.6386 15.6899 46.4787 15.5115 46.2156 15.3661C46.1024 15.3034 46.0158 15.267 45.9525 15.2439L45.0999 16.7703C45.1531 16.8033 45.2198 16.8462 45.3064 16.8925C45.8459 17.1898 46.2889 17.0643 46.5853 16.5324Z" fill="white"/>
<path d="M37.9813 34.6902C38.1845 35.2254 38.4776 35.6846 38.8506 36.0613C39.2103 35.6879 39.4868 35.2386 39.6866 34.6902H37.9813Z" fill="white"/>
<path d="M48.1227 17.2363C48.0994 17.1536 48.0427 17.0875 47.9528 17.0378C47.7197 16.9088 47.5232 17.0676 47.4332 17.1636L48.0894 17.5274C48.1193 17.458 48.1527 17.3455 48.1227 17.2363Z" fill="white"/>
<path d="M46.2535 24.6186L46.2274 25.1307L46.7064 25.1547L46.7325 24.6426L46.2535 24.6186Z" fill="white"/>
<path d="M36.047 34.7231H34.9279V35.7275H36.047V34.7231Z" fill="white"/>
<path d="M36.1199 20.3517C36.1266 20.398 36.1366 20.4343 36.1466 20.4641C36.2265 20.6557 36.413 20.7647 36.6129 20.7383C36.7594 20.7184 36.8693 20.6491 36.9393 20.5301C37.0092 20.4112 37.0325 20.246 37.0059 20.0577C36.9659 19.7636 36.7861 19.4861 36.463 19.5291C36.2631 19.5555 36.1066 19.7207 36.0833 19.9288C36.0766 19.9817 36.0733 20.018 36.0766 20.0445L36.1166 20.3517H36.1199Z" fill="white"/>
<path d="M34.505 34.7231H33.4026V35.7275H34.505V34.7231Z" fill="white"/>
<path d="M43.6747 24.4384L43.718 23.5927C43.5115 23.8999 43.2651 24.1741 43.002 24.4054L43.6747 24.4384Z" fill="white"/>
<path d="M54.8259 26.457C55.0124 26.3414 55.0457 26.1531 55.0157 26.0308C55.0057 25.9978 54.9924 25.9714 54.9791 25.9516L54.8459 25.7401C54.6127 25.8855 54.4762 26.0342 54.4429 26.163C54.4262 26.2357 54.4395 26.3018 54.4828 26.3744C54.6027 26.5661 54.7626 26.4967 54.8259 26.457Z" fill="white"/>
<path d="M55.1911 34.2475L55.4076 34.0625C58.4552 31.4624 60.0639 28.4593 60.0639 25.3768C60.0639 16.5556 47.0643 9.3632 31.0038 9.24426V41.5126C37.6518 41.4631 44.1266 40.1647 49.2725 37.8454L49.4657 37.7562L49.6489 37.8652C52.5366 39.5799 55.1112 42.1668 57.3161 45.5664C57.0263 42.7648 56.3568 37.297 55.2877 34.5152L55.1845 34.2508L55.1911 34.2475ZM56.0804 26.0739L55.0246 24.4055L55.4243 24.1577L56.4801 25.8261L56.0804 26.0739ZM53.9488 27.8844C53.9255 27.848 53.8389 27.8646 53.699 27.9306L53.609 27.9736L53.5891 27.6333C53.1561 27.7886 52.7164 27.6234 52.4433 27.1939C52.1136 26.6752 52.2568 26.0805 52.7864 25.7501C52.9729 25.6345 53.1627 25.5849 53.266 25.5783H53.3226L53.4292 25.9616L53.3459 25.9682C53.2327 25.9781 53.1161 26.0177 52.9995 26.0904C52.8463 26.1862 52.7531 26.3184 52.7264 26.4737C52.7031 26.619 52.7431 26.7809 52.8363 26.9296C52.9362 27.0882 53.0661 27.1906 53.2194 27.2269C53.3626 27.2633 53.5158 27.2368 53.6523 27.1476C53.8089 27.0518 53.8888 26.9461 53.9354 26.8767L53.9821 26.8073L54.2619 27.0849L54.2352 27.1311C54.2052 27.1774 54.102 27.336 53.8955 27.4747V27.5276C54.0454 27.5011 54.1852 27.554 54.2619 27.6729C54.3285 27.782 54.3418 27.8976 54.2952 28.0066C54.2552 28.0958 54.1786 28.1784 54.072 28.2445C53.9821 28.3007 53.8688 28.337 53.7756 28.3403H53.719L53.6423 28.0331H53.7256C53.7789 28.0331 53.8422 28.0099 53.8988 27.9769C53.9821 27.9273 53.9588 27.8943 53.9521 27.8811L53.9488 27.8844ZM50.9911 27.6994C50.9978 27.7357 51.0178 27.782 51.0478 27.8249L51.6739 28.8161L51.2742 29.0639L50.5215 27.8745C50.4149 27.7027 50.3317 27.5804 50.2451 27.4648L50.2018 27.4053L50.5715 27.1774L50.6847 27.3327C50.7213 27.1609 50.8246 26.9758 51.0378 26.8437C51.3209 26.6686 51.7672 26.6521 52.1036 27.184L52.7231 28.1652L52.3234 28.413L51.7206 27.4615C51.6539 27.3558 51.5474 27.2269 51.4108 27.1939C51.3309 27.1741 51.2476 27.1939 51.161 27.2468C50.9911 27.3525 50.9545 27.5507 50.9911 27.6994ZM49.6289 28.2676C49.549 28.2478 49.459 28.2742 49.3624 28.3337C49.2225 28.4196 49.106 28.5485 49.0494 28.6773L49.0127 28.7566L48.7163 28.5187L48.7396 28.4692C48.8295 28.2875 48.9994 28.1057 49.1959 27.9835C49.4324 27.8348 49.6555 27.8018 49.862 27.8811C50.0219 27.9439 50.1651 28.0727 50.285 28.2676L50.6514 28.8491C50.7413 28.9912 50.8279 29.1134 50.9045 29.1993L50.9545 29.2588L50.5815 29.49L50.4849 29.3711C50.4349 29.5462 50.315 29.7081 50.1451 29.8138C50.0219 29.8898 49.902 29.9228 49.7888 29.9228C49.5756 29.9228 49.3957 29.8072 49.2925 29.6453C49.1926 29.49 49.1626 29.3249 49.2026 29.1564C49.2625 28.902 49.4723 28.6575 49.8321 28.4262C49.7721 28.337 49.7022 28.2842 49.6289 28.2676ZM48.6697 30.686L47.9569 29.5594C47.8337 29.3645 47.7337 29.2125 47.6405 29.087L47.5972 29.0275L47.9636 28.7995L48.0768 28.9647C48.0935 28.7764 48.19 28.6145 48.3466 28.5154C48.3766 28.4956 48.4032 28.4857 48.4332 28.4725L48.4865 28.4493L48.5231 28.4956L48.7363 28.8326L48.6563 28.859C48.6297 28.8689 48.6064 28.8821 48.5697 28.9053C48.4032 29.0077 48.3566 29.2059 48.4432 29.4207C48.4598 29.457 48.4831 29.5033 48.5098 29.5462L49.0693 30.4316L48.6697 30.6794V30.686ZM48.8662 32.6452C48.713 32.708 48.5697 32.6386 48.5131 32.5064C48.4565 32.3677 48.5131 32.219 48.6663 32.1562C48.8229 32.0935 48.9628 32.1595 49.0227 32.2983C49.076 32.4304 49.0227 32.5824 48.8662 32.6452ZM47.5839 31.36L47.1842 31.6078L45.742 29.3282L47.0343 28.5253L47.2541 28.8755L46.3648 29.4306L46.7479 30.0352L47.5705 29.5231L47.7904 29.87L46.9677 30.3821L47.5872 31.3633L47.5839 31.36ZM47.2941 22.8296L47.2774 23.1698L45.8153 23.0972L45.8319 22.7569L47.2941 22.8296ZM46.0318 22.6148L46.0484 22.2844L47.1842 22.3406L47.1675 22.671L46.0351 22.6148H46.0318ZM47.3474 23.3284L47.364 22.9782L47.807 23.0014L47.817 22.9485C47.8337 22.8758 47.847 22.8031 47.8636 22.7337L47.3041 22.7073L47.3207 22.3571L49.2525 22.4529L49.2359 22.8031L48.2367 22.7536L48.1834 23.0179L48.9961 23.0575L48.9561 23.8141L49.3191 23.8306L49.3025 24.1841L47.1042 24.0751L47.1209 23.7216L47.6272 23.748C47.6571 23.6258 47.6904 23.4903 47.7271 23.3449L47.344 23.3251L47.3474 23.3284ZM47.6871 25.5486L47.6771 25.7138L47.3107 25.694L47.384 24.2535L49.0427 24.3361L48.9694 25.7534L48.5997 25.7336L48.6064 25.5915L47.6871 25.5453V25.5486ZM47.1009 24.1511L45.9352 24.0916L45.9518 23.7612L47.1176 23.8207L47.1009 24.1511ZM47.1009 24.3163L47.041 25.5056L46.2083 25.4627L46.1983 25.6312L45.8486 25.6147L45.9185 24.2568L47.1009 24.3163ZM45.9585 23.5993L45.9751 23.2657L47.1409 23.3251L47.1242 23.6588L45.9585 23.5993ZM54.1053 26.6521C54.0054 26.4968 53.9754 26.3316 54.0154 26.1631C54.0753 25.9087 54.2852 25.6642 54.6449 25.433C54.5849 25.3438 54.515 25.2909 54.4417 25.2744C54.3618 25.2579 54.2718 25.281 54.1753 25.3405C54.0354 25.4264 53.9188 25.5552 53.8622 25.684L53.8255 25.7633L53.5291 25.5255L53.5524 25.4759C53.6423 25.2942 53.8122 25.1158 54.0087 24.9902C54.2452 24.8416 54.4717 24.8085 54.6749 24.8878C54.8347 24.9506 54.9779 25.0795 55.0978 25.2744L55.4642 25.8558C55.5542 25.9979 55.6407 26.1202 55.7174 26.2061L55.7673 26.2655L55.3943 26.4968L55.2977 26.3778C55.2477 26.553 55.1278 26.7148 54.9546 26.8206C54.8314 26.8966 54.7115 26.9296 54.5982 26.9296C54.3851 26.9296 54.2052 26.814 54.102 26.6521H54.1053ZM54.7182 23.8405C54.7348 23.7678 54.7781 23.7051 54.8447 23.6654C54.9779 23.5828 55.1411 23.6225 55.2244 23.7546C55.3077 23.8868 55.271 24.0487 55.1312 24.1346C55.0845 24.1643 55.0346 24.1775 54.9846 24.1775C54.9646 24.1775 54.9413 24.1775 54.9213 24.1709C54.8547 24.1544 54.7948 24.1114 54.7548 24.0487C54.7148 23.9859 54.7015 23.9132 54.7148 23.8438L54.7182 23.8405ZM56.3036 23.5663C56.4601 23.4672 56.6433 23.4176 56.7832 23.4143H56.8365L56.9331 23.7976H56.8465C56.7732 23.8009 56.6399 23.8075 56.5034 23.8934C56.3802 23.9694 56.3402 24.0784 56.4001 24.1742C56.4568 24.2601 56.54 24.2733 56.7932 24.2271C57.1729 24.1511 57.416 24.2238 57.5692 24.4682C57.7724 24.7887 57.6491 25.1521 57.2628 25.3933C57.0929 25.499 56.8931 25.5618 56.7199 25.5684H56.6666L56.5667 25.1819H56.6533C56.7632 25.1753 56.9364 25.1455 57.0663 25.0629C57.1562 25.0068 57.2961 24.8878 57.1995 24.7359C57.1429 24.6467 57.0663 24.6103 56.8032 24.6632C56.4335 24.7425 56.1737 24.6698 56.0371 24.4517C55.8506 24.1544 55.9638 23.7811 56.3102 23.5663H56.3036ZM55.1178 19.7108L54.6582 20.5334C54.7082 20.5202 54.7615 20.5136 54.8147 20.5136C54.8147 20.5136 54.8214 20.5136 54.8281 20.5136C54.9446 20.5136 55.0645 20.5433 55.1678 20.6028C55.4342 20.7515 55.6474 21.1017 55.361 21.6104L54.8347 22.5487L54.445 22.334L54.9546 21.4254C55.0212 21.3098 55.0512 21.2008 55.0412 21.1149C55.0312 21.0191 54.9813 20.9464 54.8814 20.8902C54.7281 20.8043 54.5516 20.8572 54.4484 20.9464C54.4184 20.9728 54.3984 21.0025 54.3718 21.0455L53.8389 21.997L53.4492 21.7822L54.7281 19.496L55.1178 19.7108ZM52.9729 19.7074C53.2194 19.6348 53.4791 19.6711 53.7323 19.8099C53.9121 19.909 54.0354 20.0378 54.0887 20.1171L54.1186 20.1634L53.8422 20.431L53.7956 20.3616C53.7389 20.2757 53.6557 20.1997 53.5458 20.1402C53.2027 19.9486 52.9296 20.1535 52.7997 20.3814C52.6332 20.6755 52.7064 20.9761 52.9795 21.1281C53.1194 21.2041 53.2293 21.2239 53.3226 21.2338L53.4059 21.2404L53.3026 21.5972H53.2493C53.1328 21.5873 52.9362 21.5411 52.7431 21.4353C52.5066 21.3065 52.3501 21.1149 52.2868 20.8902C52.2268 20.6656 52.2634 20.4211 52.3967 20.1832C52.5299 19.9453 52.7331 19.7768 52.9696 19.7074H52.9729ZM52.2734 19.007C52.4233 19.0896 52.5499 19.2086 52.6132 19.3275L52.6365 19.3738L52.36 19.6282L52.3167 19.5522C52.2868 19.496 52.2168 19.3936 52.0869 19.3209C52.027 19.2879 51.967 19.2746 51.9171 19.2879C51.8738 19.2978 51.8405 19.3242 51.8205 19.3605C51.7805 19.4332 51.7905 19.496 51.9504 19.6942C52.1835 19.9684 52.2301 20.1931 52.1002 20.4277C52.017 20.5764 51.8871 20.6722 51.7272 20.7019C51.6906 20.7085 51.6539 20.7118 51.6173 20.7118C51.4874 20.7118 51.3475 20.6722 51.2043 20.5929C51.0411 20.5037 50.9012 20.3715 50.8179 20.2328L50.7913 20.1865L51.0711 19.9255L51.1144 19.9982C51.1643 20.0841 51.2676 20.2063 51.3908 20.2757C51.4741 20.322 51.6306 20.3781 51.7072 20.2394C51.7539 20.1568 51.7472 20.0808 51.5907 19.8958C51.3608 19.6315 51.3042 19.3936 51.4208 19.1821C51.4974 19.0467 51.624 18.9542 51.7738 18.9178C51.9304 18.8848 52.1036 18.9112 52.2701 19.0037L52.2734 19.007ZM50.788 18.2273L50.9345 17.9663L51.3842 18.0621L51.1743 18.4355L51.5607 18.6502L51.3808 18.974L50.9945 18.7593L50.5815 19.496C50.5348 19.5786 50.5115 19.648 50.5148 19.6942C50.5148 19.724 50.5282 19.7636 50.5948 19.8033C50.6681 19.8429 50.708 19.8561 50.7447 19.866L50.8279 19.8825L50.6647 20.2162L50.6148 20.2063C50.5648 20.1964 50.4582 20.1733 50.3317 20.1039C50.1951 20.0279 50.1018 19.9156 50.0685 19.7867C50.0386 19.6513 50.0785 19.4894 50.1884 19.2945L50.6081 18.5478L50.3783 18.419L50.5581 18.0952L50.788 18.224V18.2273ZM49.4091 17.4675L48.9195 18.343C48.8429 18.4784 48.8062 18.5974 48.8129 18.6899C48.8195 18.7857 48.8662 18.8551 48.9628 18.9079C49.1226 18.9971 49.2892 18.9377 49.3824 18.865C49.4124 18.8418 49.4424 18.8022 49.469 18.7593L50.0086 17.7978L50.3983 18.0126L49.7654 19.1425C49.6722 19.311 49.6022 19.4398 49.5523 19.5489L49.5223 19.6149L49.1626 19.4167L49.2359 19.2647C49.0993 19.3044 48.9028 19.3176 48.6863 19.1987C48.5531 19.126 48.1401 18.8319 48.5098 18.1778L49.026 17.256L49.4157 17.4708L49.4091 17.4675ZM48.1534 16.734C48.3899 16.8629 48.5231 17.0611 48.5431 17.3023C48.5631 17.5501 48.4565 17.7747 48.4065 17.8573C48.3732 17.9135 48.3466 17.9564 48.3199 17.9895L48.2833 18.0324L47.2508 17.4642C47.0876 17.8375 47.3507 18.0357 47.4773 18.1051C47.6738 18.2141 47.8037 18.2372 47.9069 18.2472L47.9869 18.2538L47.8936 18.604H47.837C47.7104 18.5875 47.5073 18.5478 47.2575 18.4124C46.7778 18.148 46.6446 17.6591 46.9177 17.1701C47.0476 16.9355 47.2408 16.7604 47.454 16.6778C47.6838 16.5886 47.9269 16.6085 48.1534 16.734ZM45.7353 14.7352L45.7886 14.755C45.9885 14.8244 46.1983 14.9202 46.3948 15.0259C46.7812 15.2374 47.0243 15.4918 47.1242 15.7825C47.2275 16.0832 47.1875 16.4069 47.001 16.7373C46.8078 17.0842 46.5347 17.3122 46.215 17.4047C46.125 17.4278 46.0318 17.441 45.9318 17.441C45.6721 17.441 45.379 17.3551 45.0759 17.1866C44.8927 17.0842 44.7361 16.9884 44.5962 16.8893L44.5463 16.853L45.7353 14.7286V14.7352ZM45.6288 22.9121L45.6088 23.2921L44.3298 23.2293C44.6196 23.8537 45.1092 24.4022 45.6221 24.6797L45.7154 24.7292L45.6288 24.792C45.5721 24.8317 45.4955 24.9143 45.4489 24.9803L45.4123 25.0332L45.359 25.0002C45.1591 24.8812 44.9693 24.7259 44.7894 24.5442L44.7728 24.8713L44.05 24.835L44.0134 25.5321L43.6237 25.5123L43.6603 24.8151L42.9243 24.7788L42.9409 24.4583C42.7511 24.6169 42.5512 24.7524 42.348 24.8548L42.2914 24.8845L42.2581 24.8317C42.2215 24.7722 42.1515 24.683 42.1049 24.6367L42.0316 24.5674L42.1216 24.5277C42.6478 24.2898 43.184 23.7844 43.5371 23.1897L42.2748 23.1269L42.2948 22.747L43.7569 22.8196L43.7969 22.0399L44.2665 22.0895L44.2532 22.1622C44.2465 22.1919 44.2299 22.2316 44.1766 22.2514L44.1466 22.8395L45.6221 22.9121H45.6288ZM44.443 27.7588C44.4097 27.9141 44.3664 28.2346 44.3098 28.7269C44.2532 29.2191 44.1999 29.718 44.1466 30.2235C44.1166 30.3623 44.0667 30.5274 43.9967 30.7191C43.9268 30.9107 43.8568 31.0627 43.7836 31.1684L43.677 31.1453C43.7236 30.9206 43.7602 30.6695 43.7836 30.3986C43.8069 30.1244 43.8369 29.7345 43.8735 29.2224C43.9101 28.7136 43.9368 28.4064 43.9601 28.3073C43.9901 28.1586 44.0733 28.0298 44.2032 27.9273C44.3098 27.858 44.3897 27.8018 44.4397 27.7621L44.443 27.7588ZM43.8402 17.3551L44.2066 20.0907L43.7469 20.1502L43.3806 17.4146L43.8402 17.3551ZM42.0017 12.4754L42.0083 13.4897C42.0516 13.4467 42.1016 13.4104 42.1515 13.3806C42.2614 13.3146 42.3913 13.2815 42.5246 13.2815C42.851 13.2815 43.2307 13.4963 43.234 14.1174L43.2407 15.2638H42.771L42.7644 14.157C42.7644 13.8465 42.6411 13.6879 42.408 13.6912C42.2148 13.6912 42.0783 13.8333 42.0283 13.9753C42.0116 14.015 42.0116 14.0579 42.0116 14.1108L42.0183 15.2737H41.5487L41.532 12.482H42.0017V12.4754ZM42.2814 18.3628C42.8277 18.2901 43.264 18.6436 43.3406 19.2185C43.4338 19.9123 42.9775 20.2922 42.5179 20.355C42.4713 20.3616 42.4247 20.3649 42.3814 20.3649C41.9017 20.3649 41.5354 20.0246 41.4621 19.496C41.3822 18.9046 41.7185 18.4388 42.2814 18.3661V18.3628ZM39.5303 25.0068L39.517 25.2446L39.1306 25.2248L39.2905 22.0499L41.7718 22.1721L41.612 25.3272L41.2223 25.3074L41.2323 25.0927L39.5236 25.0068H39.5303ZM40.8592 20.5268L40.7127 19.4365C40.6727 19.1326 40.5362 18.9938 40.3063 19.0236C40.1132 19.05 39.9999 19.2086 39.9733 19.3572C39.9666 19.3936 39.9666 19.4398 39.9733 19.4894L40.1232 20.6226L39.6635 20.6821L39.4803 19.3209C39.4537 19.126 39.4304 18.9839 39.4037 18.8485L39.3871 18.7758L39.8101 18.7196L39.8467 18.9013C39.95 18.7659 40.1198 18.6403 40.3596 18.6106C40.6827 18.5676 41.0891 18.7328 41.169 19.3407L41.3189 20.464L40.8592 20.5235V20.5268ZM39.1639 15.2836L39.1539 13.3344H39.6236L39.6336 15.2803H39.1639V15.2836ZM40.4995 14.4676C40.1465 14.3421 39.9666 14.1504 39.9666 13.8927C39.9666 13.7275 40.0332 13.5756 40.1565 13.4665C40.283 13.3509 40.4596 13.2914 40.6627 13.2914C40.8459 13.2914 41.0258 13.3344 41.1457 13.4137L41.189 13.4434L41.0691 13.8167L40.9958 13.7705C40.9358 13.7341 40.8159 13.6747 40.6561 13.6747C40.5795 13.6747 40.5195 13.6945 40.4762 13.7308C40.4396 13.7639 40.4229 13.8068 40.4229 13.8564C40.4229 13.9588 40.4895 14.0117 40.726 14.1042C41.0891 14.2363 41.2523 14.4213 41.2523 14.7088C41.2523 15.0491 41.0124 15.2803 40.6294 15.32C40.5895 15.3233 40.5495 15.3266 40.5062 15.3266C40.3063 15.3266 40.1065 15.2803 39.9566 15.1911L39.91 15.1647L40.0299 14.7848L40.1032 14.8277C40.1964 14.8806 40.3596 14.9433 40.5128 14.9433C40.6094 14.9433 40.686 14.9202 40.7327 14.8806C40.7726 14.8475 40.796 14.798 40.7926 14.7385C40.7926 14.6328 40.746 14.5634 40.4995 14.4742V14.4676ZM39.7401 18.1216C39.7868 18.0588 39.8567 18.0192 39.9366 18.0093C40.0266 17.9961 40.0998 18.0258 40.1864 18.0555L40.2264 18.0721C40.273 18.0919 40.313 18.1084 40.3397 18.1018C40.3463 18.1018 40.3663 18.0985 40.3596 18.006V17.9432L40.6594 17.9036L40.6694 17.9696C40.6927 18.1348 40.676 18.2571 40.6128 18.3397C40.5661 18.3991 40.4995 18.4388 40.4096 18.4487C40.3097 18.4619 40.2197 18.4289 40.1398 18.3958L40.1132 18.3859C40.0632 18.3661 40.0299 18.3529 40.0066 18.3562C40.0066 18.3562 39.9866 18.376 39.9899 18.4619V18.5247L39.6868 18.5643L39.6768 18.4983C39.6502 18.3397 39.6735 18.2075 39.7401 18.1183V18.1216ZM39.1839 12.7001C39.2339 12.6472 39.3071 12.6175 39.3838 12.6175C39.4604 12.6175 39.5303 12.6439 39.5803 12.6968C39.6302 12.7463 39.6569 12.8157 39.6569 12.8884C39.6569 12.9611 39.6302 13.0304 39.5836 13.08C39.5403 13.1229 39.4837 13.1494 39.4171 13.1593C39.4071 13.1593 39.3937 13.1593 39.3804 13.1593C39.3071 13.1593 39.2405 13.1329 39.1906 13.0833C39.1406 13.0337 39.1106 12.9644 39.1106 12.8884C39.1106 12.8157 39.1373 12.7463 39.1872 12.6968L39.1839 12.7001ZM39.114 19.5786L39.2039 20.2427C39.2272 20.4079 39.2539 20.5499 39.2838 20.6556L39.3071 20.7316L38.8775 20.7878L38.8409 20.6424C38.7243 20.7779 38.5511 20.8704 38.3579 20.8968C38.3213 20.9001 38.288 20.9034 38.2547 20.9034C37.9116 20.9034 37.7018 20.6622 37.6651 20.4012C37.6418 20.2228 37.6818 20.0643 37.785 19.9288C37.9416 19.7273 38.228 19.5951 38.641 19.5323C38.6244 19.4332 38.5844 19.3572 38.5244 19.3143C38.4612 19.268 38.3746 19.2515 38.2613 19.268C38.1014 19.2879 37.9482 19.3539 37.845 19.4464L37.7784 19.5059L37.6118 19.1722L37.6518 19.1392C37.805 19.0136 38.0315 18.9211 38.258 18.8914C38.5311 18.8551 38.7409 18.9145 38.8908 19.0698C39.0074 19.1887 39.0807 19.3605 39.1106 19.5819L39.114 19.5786ZM38.7243 12.4886L38.7409 15.2836H38.2713L38.2547 12.4919H38.7243V12.4886ZM36.9091 13.3047C37.1622 13.3047 37.3254 13.3972 37.4286 13.4996L37.4353 13.341H37.8683L37.8616 13.4104C37.8516 13.5293 37.8483 13.6681 37.8483 13.8993L37.855 14.9533C37.855 15.3828 37.7717 15.6537 37.5785 15.8354C37.4053 15.9907 37.1822 16.0468 37.009 16.0666C36.9557 16.0733 36.9057 16.0733 36.8624 16.0733C36.6126 16.0733 36.3662 16.0138 36.2163 15.9147L36.173 15.8849L36.2962 15.4984L36.3695 15.5479C36.4328 15.5876 36.606 15.6834 36.8691 15.6801C37.0323 15.6801 37.1555 15.6371 37.2421 15.5512C37.3387 15.4554 37.3887 15.3068 37.3853 15.1085V15.092C37.2555 15.2143 37.0689 15.2836 36.8658 15.2836C36.3828 15.2836 36.0164 14.8806 36.0131 14.3354C36.0098 13.6615 36.4594 13.3047 36.9024 13.3047H36.9091ZM35.9598 19.4233C36.0864 19.2515 36.2729 19.1458 36.516 19.1161C36.7492 19.0863 36.9723 19.1557 37.1489 19.311C37.3221 19.4663 37.4386 19.7008 37.4753 19.9751C37.5685 20.6755 37.1522 21.0554 36.7259 21.1116C36.5327 21.138 36.3528 21.0984 36.213 21.0058L36.3262 21.8615L35.8699 21.921L35.6034 19.9321C35.5735 19.7074 35.5402 19.5257 35.5102 19.3572L35.4969 19.2879L35.9199 19.2317L35.9565 19.4266L35.9598 19.4233ZM34.4577 13.3542L34.471 13.5425C34.5909 13.417 34.7774 13.3146 35.0239 13.3146C35.1238 13.3146 35.3203 13.3344 35.4869 13.4831C35.6534 13.6284 35.74 13.8531 35.74 14.1504L35.7467 15.2969H35.277L35.2704 14.1868C35.2704 13.8762 35.1471 13.7176 34.9107 13.7209C34.7142 13.7209 34.5776 13.8696 34.531 14.015C34.5176 14.048 34.511 14.0976 34.511 14.1471L34.5176 15.3068H34.048L34.0414 13.9192C34.0414 13.7176 34.0347 13.5723 34.0247 13.4335L34.018 13.3608H34.451L34.4577 13.3542ZM34.6475 20.5301C34.2845 20.4508 34.0847 20.2823 34.0513 20.0345C34.0047 19.6942 34.2612 19.4101 34.6575 19.3572C34.8374 19.3341 35.0206 19.3572 35.1471 19.4167L35.1938 19.4398L35.1205 19.8198L35.0406 19.7834C34.9773 19.7537 34.8507 19.7108 34.6975 19.7306C34.6242 19.7405 34.5643 19.7669 34.531 19.8066C34.501 19.8429 34.4877 19.8859 34.4943 19.9354C34.5077 20.0345 34.5776 20.0775 34.8207 20.1402C35.1904 20.2261 35.3736 20.388 35.4136 20.6656C35.4369 20.844 35.3869 21.0025 35.2704 21.1281C35.1538 21.2536 34.9773 21.3329 34.7608 21.3627C34.7075 21.3693 34.6542 21.3726 34.6042 21.3726C34.461 21.3726 34.3211 21.3461 34.2079 21.2999L34.1579 21.2801L34.2279 20.8902L34.3078 20.9233C34.4044 20.9629 34.5743 21.0058 34.7208 20.986C34.8241 20.9728 34.9939 20.9233 34.9706 20.7515C34.9573 20.649 34.904 20.5863 34.6509 20.5301H34.6475ZM33.705 12.6439V13.0536L32.6591 13.0602V13.7242L33.6483 13.7176V14.1207L32.6658 14.1273V14.9037L33.7716 14.8971V15.3068L32.2028 15.3167L32.1895 12.6571L33.705 12.6505V12.6439ZM33.6317 18.8187L33.685 19.2185L32.6625 19.3539L32.7491 20.0015L33.7149 19.8759L33.7682 20.2724L32.8023 20.3979L32.9023 21.1545L33.9814 21.0125L34.0347 21.4155L32.4959 21.6171L32.1495 19.0136L33.6317 18.8187ZM33.7749 25.912L33.4685 26.2721L33.1454 25.9318L32.8323 26.2457L32.5092 25.8988L32.8523 25.5123L33.1787 25.8393L33.4552 25.5486L33.7749 25.9087V25.912ZM36.4694 36.3587H36.0497V36.1175H34.9306V37.4754H34.5077V36.1175H33.4052V36.3785H32.9955V34.3037H34.5077V33.5537L35.0239 33.5868L35.0139 33.6595C35.0106 33.6892 34.9939 33.7321 34.934 33.7586V34.3037H36.4727V36.3587H36.4694ZM33.7549 29.8964L34.0747 29.533L34.4144 29.8898L34.7042 29.5726L35.0239 29.9295L34.6975 30.3061L34.3678 29.9658L34.098 30.2598L33.7582 29.8997L33.7549 29.8964ZM36.2829 30.5506L35.9565 30.2235L36.2729 29.8997L36.616 30.2433L36.2829 30.5506ZM36.5127 29.4702C36.3195 29.5627 36.0797 29.5792 35.7933 29.5231L35.7633 29.5165V29.5231L35.0439 29.3777C34.8574 29.3216 34.7574 29.2786 34.7408 29.2423C34.7241 29.2092 34.6842 29.0903 34.6276 28.8954C34.501 29.0242 34.4044 29.1101 34.3444 29.1531C34.2845 29.196 34.1446 29.196 33.9314 29.1531L33.4019 29.044V29.0374L33.3652 29.0308C33.192 28.9945 33.0921 28.9185 33.0621 28.7995C33.0322 28.6806 33.0122 28.4692 33.0055 28.1685L32.7157 28.3965C32.6691 28.4394 32.6225 28.4758 32.5792 28.5088C32.5359 28.5419 32.4993 28.5551 32.4593 28.5452C32.3161 28.5154 32.1928 28.4692 32.0829 28.4097C31.9763 28.3502 31.9364 28.2478 31.963 28.1124C32.003 27.9141 32.0929 27.7456 32.2228 27.6168C32.356 27.4846 32.6258 27.3558 33.0322 27.2269C33.0388 27.1576 33.0422 27.0849 33.0488 27.0056C33.0555 26.9263 33.0621 26.8635 33.0721 26.8173C33.0855 26.7512 33.1321 26.695 33.212 26.6488C33.292 26.6025 33.3686 26.5563 33.4452 26.51C33.4452 26.7049 33.4318 26.9296 33.4119 27.184C33.3919 27.4384 33.3786 27.6663 33.3686 27.8712C33.3586 28.076 33.3652 28.2049 33.3885 28.2544C33.4119 28.3073 33.4985 28.3469 33.6483 28.38L34.1213 28.4758V28.4824C34.3678 28.5319 34.531 28.5485 34.6076 28.5319C34.6875 28.5154 34.8041 28.4361 34.9606 28.2974L34.9973 28.304C34.9906 28.4692 34.9906 28.5617 35.0006 28.5848C35.0106 28.6079 35.0772 28.6476 35.1971 28.7037L35.3303 28.7302V28.7236L36.0864 28.8788C36.213 28.9053 36.3295 28.9185 36.4361 28.9185C36.5427 28.9185 36.6026 28.8888 36.616 28.8326C36.6193 28.8128 36.5926 28.7467 36.5327 28.6377C36.4727 28.5286 36.4461 28.456 36.4528 28.4229C36.4628 28.38 36.4794 28.3403 36.5061 28.304C36.5327 28.2676 36.5527 28.2379 36.566 28.2181L36.8824 27.8018C36.9157 27.9901 36.9424 28.1586 36.9557 28.304C36.969 28.4493 36.9624 28.5881 36.9357 28.717C36.8491 29.1332 36.7092 29.3876 36.5127 29.4801V29.4702ZM40.8326 37.1978C40.776 37.254 40.6927 37.3696 40.6461 37.4555L40.6228 37.5018L40.5695 37.4886C39.8834 37.3135 39.3138 37.0294 38.8342 36.623C38.3812 36.9897 37.8183 37.2738 37.1189 37.4853L37.0589 37.5018L37.0356 37.4456C37.0123 37.3862 36.939 37.2771 36.8857 37.2144L36.8225 37.1351L36.9224 37.1053C37.5752 36.9203 38.1014 36.6659 38.5278 36.3322C38.1114 35.8895 37.7784 35.3345 37.5419 34.6803V34.6704H36.9124V34.2674H38.6344V33.5504L39.1473 33.5835L39.1373 33.6562C39.1339 33.6859 39.1173 33.7288 39.054 33.7553V34.2674H40.8059V34.6704H40.2331L40.2264 34.6869C40.2031 34.7431 40.1498 34.7596 40.1098 34.7662C39.88 35.3973 39.5703 35.9061 39.1673 36.3223C39.6236 36.6858 40.1764 36.9401 40.8026 37.0822L40.9225 37.1086L40.8359 37.1945L40.8326 37.1978ZM43.1074 28.2379C43.0908 28.3205 43.0675 28.5947 43.0408 29.0539C43.0142 29.5165 42.9875 29.8006 42.9642 29.9129C42.8976 30.2268 42.7844 30.4614 42.6212 30.6233C42.458 30.7851 42.2548 30.8413 42.005 30.7917L41.4321 30.6761C41.2489 30.6001 41.1057 30.4878 40.9991 30.3424C40.8892 30.1905 40.7893 30.0583 40.706 29.9394C40.6028 29.979 40.4695 30.0418 40.3063 30.131C40.1431 30.2202 40.0399 30.2697 39.9999 30.2863C39.9566 30.3028 39.9067 30.3094 39.8467 30.3127C39.8001 30.3127 39.7468 30.3127 39.6935 30.3127V30.3259L38.9707 30.1772C38.7909 30.5935 38.5944 30.9404 38.3746 31.2245C38.1547 31.5087 37.875 31.6144 37.5319 31.5417C37.422 31.5186 37.3221 31.4789 37.2321 31.4261C37.1422 31.3699 36.979 31.2378 36.7492 31.023L36.8091 30.9503C36.8957 30.9801 36.979 31.0098 37.0656 31.0428C37.3687 31.1056 37.6451 31.066 37.8949 30.9239C38.1447 30.7818 38.4312 30.577 38.7476 30.3061C38.681 30.1442 38.6343 30.0319 38.6077 29.9658C38.5811 29.8997 38.5344 29.751 38.4645 29.5231L38.9208 29.0341C38.9907 29.2224 39.054 29.348 39.104 29.4141C39.1573 29.4801 39.2272 29.5231 39.3138 29.5396H39.3205V29.5363L39.8001 29.6354C39.9033 29.642 40.0033 29.6486 40.1032 29.6552C40.2031 29.6618 40.3097 29.6552 40.4229 29.6387C40.373 29.566 40.3163 29.5099 40.2564 29.4669C40.1964 29.424 40.1065 29.3711 39.9866 29.3083C40.0799 29.0936 40.1964 28.9119 40.3363 28.7665C40.4762 28.6211 40.696 28.5782 40.9925 28.641C41.189 28.6806 41.3488 28.7731 41.4721 28.9185C41.5953 29.0639 41.6386 29.2257 41.5986 29.4108C41.572 29.5429 41.5254 29.6321 41.4654 29.6751C41.4055 29.718 41.2922 29.7676 41.1324 29.8204C41.2889 29.9096 41.4454 29.9691 41.5986 30.0021L42.0649 30.0979L42.2148 30.1277C42.3714 30.1607 42.4713 30.1574 42.5212 30.1211C42.5712 30.0847 42.6112 29.9955 42.6411 29.8502C42.6678 29.7279 42.6878 29.457 42.7078 29.0374C42.7277 28.6145 42.7477 28.1784 42.7744 27.7291C42.8077 27.5639 42.8576 27.4483 42.9176 27.3888C42.9775 27.3294 43.0775 27.2633 43.2207 27.1939C43.2906 27.402 43.3706 27.5937 43.4638 27.7655C43.3506 27.8514 43.2706 27.9174 43.224 27.9637C43.1807 28.0099 43.1441 28.1024 43.1141 28.2412L43.1074 28.2379ZM44.3631 36.8543L43.3406 34.383L43.7969 34.198L44.8194 36.6692L44.3664 36.8543H44.3631ZM45.9885 36.2397C45.8186 36.3091 45.6587 36.3091 45.5355 36.253C45.3923 36.1902 45.279 36.0448 45.1824 35.8102L44.8361 34.9711L44.5829 35.0735L44.443 34.7365L44.6995 34.6341L44.5596 34.3004L44.956 33.9931L45.1458 34.4524L45.5788 34.2773L45.7187 34.6143L45.2857 34.7894L45.6121 35.5757C45.702 35.7937 45.8086 35.8796 45.9818 35.8102C46.0617 35.7772 46.105 35.7541 46.1517 35.721L46.3016 36.058C46.2449 36.1109 46.1317 36.1836 45.9918 36.2397H45.9885ZM47.6771 35.503L47.5605 35.318H47.5506C47.5006 35.5063 47.354 35.6814 47.1176 35.7772C46.7545 35.9259 46.4448 35.7475 46.3315 35.4766C46.145 35.0305 46.4548 34.6341 47.1209 34.3665L47.1076 34.3367C47.0576 34.2211 46.931 34.046 46.6113 34.1749C46.4348 34.2475 46.2716 34.3764 46.1817 34.5052L45.9718 34.2475C46.0717 34.1121 46.2716 33.9403 46.558 33.8246C47.1342 33.5901 47.4506 33.8841 47.6138 34.2773L47.8803 34.9182C47.9469 35.0801 48.0202 35.2354 48.0868 35.3345L47.6771 35.503ZM48.5398 35.1528L47.4606 32.5494L47.9136 32.3644L48.9927 34.9678L48.5398 35.1528ZM49.489 34.7662L48.7496 32.9822L49.2026 32.7972L49.942 34.5812L49.489 34.7662ZM51.4508 33.9667L51.3342 33.7817H51.3242C51.2742 33.97 51.1277 34.1451 50.8912 34.2409C50.5282 34.3896 50.2184 34.2112 50.1052 33.9403C49.9187 33.4943 50.2284 33.0978 50.8945 32.8302L50.8812 32.8005C50.8313 32.6815 50.7047 32.5097 50.385 32.6386C50.2084 32.7113 50.0452 32.8401 49.9553 32.969L49.7455 32.7113C49.8454 32.5758 50.0452 32.404 50.3317 32.2884C50.9079 32.0538 51.2243 32.3478 51.3875 32.741L51.6539 33.3819C51.7206 33.5438 51.7938 33.6991 51.8604 33.7982L51.4508 33.9667ZM53.4891 33.1375L53.0728 32.1298C52.9662 31.8721 52.7897 31.7168 52.5432 31.8192C52.3634 31.8919 52.2901 32.0736 52.2968 32.2289C52.2968 32.2719 52.3134 32.3313 52.3334 32.3809L52.7697 33.4315L52.3167 33.6165L51.7972 32.3644C51.7139 32.1595 51.634 31.991 51.5607 31.8391L51.957 31.6772L52.0903 31.9349H52.1002C52.1236 31.7565 52.2501 31.5087 52.5499 31.3864C52.863 31.2576 53.2726 31.327 53.5058 31.8919L53.9454 32.9524L53.4925 33.1375H53.4891ZM53.9488 31.9217C53.7056 31.3369 53.9454 30.8182 54.4883 30.5968C55.0246 30.3788 55.5375 30.6067 55.764 31.1486C56.0371 31.806 55.6907 32.2884 55.2344 32.4734C54.7281 32.6782 54.1919 32.4965 53.9521 31.9217H53.9488Z" fill="white"/>
<path d="M39.6512 22.4503L39.6058 23.3445L41.3156 23.4298L41.361 22.5356L39.6512 22.4503Z" fill="white"/>
<path d="M42.4743 19.9815C42.6042 19.965 42.7141 19.889 42.7874 19.7667C42.864 19.6412 42.8907 19.4727 42.8673 19.2943C42.8474 19.139 42.7841 18.9936 42.6975 18.8945C42.6109 18.7921 42.5043 18.7426 42.3777 18.7426C42.3578 18.7426 42.3378 18.7426 42.3145 18.7459C42.1612 18.7657 42.048 18.845 41.9781 18.9804C41.9148 19.1027 41.8948 19.2613 41.9181 19.4264C41.9647 19.7833 42.1979 20.0145 42.471 19.9782L42.4743 19.9815Z" fill="white"/>
<path d="M55.2925 31.3633C55.176 31.0858 54.9195 30.8148 54.6064 30.9404C54.2833 31.0725 54.2833 31.436 54.4066 31.7333C54.5498 32.0769 54.8296 32.2685 55.106 32.1562C55.3658 32.0505 55.4424 31.7267 55.2925 31.3633Z" fill="white"/>
<path d="M39.587 23.717L39.5405 24.6343L41.2503 24.7196L41.2969 23.8023L39.587 23.717Z" fill="white"/>
<path d="M50.0172 29.4503C50.2037 29.3347 50.237 29.1464 50.207 29.0241C50.197 28.9944 50.1837 28.9647 50.1704 28.9448L50.0371 28.7334C49.804 28.8788 49.6674 29.0241 49.6341 29.1563C49.6175 29.229 49.6308 29.295 49.6741 29.3677C49.794 29.5594 49.9539 29.49 50.0172 29.4503Z" fill="white"/>
<path d="M47.7301 24.6307L47.7014 25.1957L48.6229 25.2417L48.6515 24.6767L47.7301 24.6307Z" fill="white"/>
<path d="M51.0217 33.134C50.6986 33.2629 50.4189 33.4512 50.5321 33.7254C50.6054 33.9005 50.7519 33.9369 50.8985 33.8774C51.0817 33.8014 51.1649 33.6329 51.1549 33.4842C51.1549 33.4479 51.1383 33.4149 51.125 33.3818L51.0217 33.1373V33.134Z" fill="white"/>
<path d="M47.2467 34.6737C46.9236 34.8026 46.6438 34.9909 46.7571 35.2618C46.8304 35.4369 46.9769 35.4732 47.1235 35.4138C47.3066 35.3378 47.3899 35.1693 47.3799 35.0206C47.3799 34.9843 47.3633 34.9512 47.3499 34.9182L47.2467 34.6737Z" fill="white"/>
<path d="M36.9638 14.9102C37.147 14.9102 37.3036 14.7946 37.3569 14.6162C37.3702 14.5732 37.3802 14.5171 37.3802 14.4609V14.1338C37.3802 14.0744 37.3735 14.038 37.3635 14.0116C37.3036 13.8167 37.1537 13.7043 36.9605 13.7043C36.9439 13.7043 36.9272 13.7043 36.9139 13.7043C36.6574 13.7308 36.4876 13.9753 36.4909 14.3222C36.4909 14.4873 36.5375 14.636 36.6175 14.7417C36.7007 14.8508 36.8206 14.9069 36.9672 14.9069L36.9638 14.9102Z" fill="white"/>
<path d="M48.6058 23.3944L48.1062 23.3679C48.0729 23.5102 48.0396 23.6491 48.0096 23.7715L48.5859 23.8013L48.6058 23.3944Z" fill="white"/>
<path d="M103.872 13.8499C103.419 12.3499 102.314 11.5258 100.8 11.337C99.8976 11.2258 99.5992 10.8415 99.6704 9.98535C99.7246 9.32468 99.6806 8.65727 99.6806 7.95447H96.4371C96.4659 8.43649 96.4913 8.86626 96.5168 9.28761C96.8694 9.34491 97.1339 9.38704 97.3526 9.42244V11.0539C94.1736 12.0449 93.0308 13.105 93.1546 15.1797C93.2055 16.0089 93.4971 16.8971 93.9278 17.61C94.6551 18.8201 96.0607 18.9297 97.3272 19.2246C97.3425 19.5128 97.3679 19.7606 97.3645 20.01C97.3611 20.2527 97.3289 20.4954 97.312 20.7196C96.9678 20.7701 96.6999 20.8106 96.4473 20.8476C96.2285 22.2381 96.2828 22.3089 97.6036 22.3072C98.4496 22.3072 99.2957 22.2735 100.142 22.2802C100.652 22.2853 100.794 22.0662 100.832 21.5707C100.886 20.8443 100.51 20.701 99.8484 20.7398V19.1926C99.9128 19.2668 99.979 19.3409 100.043 19.4151C101.02 18.9145 102.142 18.5791 102.943 17.878C104.13 16.8347 104.326 15.3533 103.872 13.8499ZM97.2899 17.5544C96.1302 17.4583 95.5317 16.7791 95.4249 15.4746C95.3028 13.9763 95.8521 13.1438 97.2899 12.7595V17.5544ZM101.741 15.4982C101.641 16.7673 100.874 17.5561 99.8043 17.4735V12.7814C101.369 12.8219 101.841 14.2241 101.741 15.4982Z" fill="white"/>
<path d="M222.36 32.4514C222.055 31.0155 220.841 30.0329 219.185 29.8593C218.401 29.7767 218.105 29.4818 218.172 28.6964C218.235 27.9599 218.186 27.2133 218.186 26.5088H214.932C214.766 27.3363 214.676 28.0374 215.822 27.9431V29.4279C214.748 29.9166 213.713 30.2318 212.867 30.8149C211.95 31.447 211.516 32.5088 211.645 33.6245C211.741 34.4587 211.957 35.3385 212.36 36.0632C213.088 37.3694 214.546 37.4773 215.806 37.7436V39.2756C215.468 39.316 215.197 39.348 214.892 39.3851V40.6694C215.065 40.7183 215.199 40.7857 215.331 40.7857C216.374 40.7924 217.42 40.7351 218.459 40.7991C219.23 40.848 219.486 40.4772 219.286 39.8722C219.176 39.5435 218.715 39.3295 218.411 39.0649C218.352 39.1121 218.291 39.1593 218.232 39.2065V37.9104C219.244 37.5093 220.26 37.3054 221.029 36.7593C222.508 35.7127 222.715 34.1082 222.36 32.4514ZM215.846 36.0548C214.542 35.979 213.963 35.3351 213.91 33.9329C213.851 32.261 214.397 31.5026 215.846 31.302V36.0548ZM218.247 36.0295V31.3324C219.507 31.3442 220.299 32.2762 220.256 33.6868C220.221 34.843 219.632 36.129 218.247 36.0295Z" fill="white"/>
<path d="M82.2176 27.8251C81.6174 27.6381 80.7442 27.8689 80.5085 26.9285C80.4899 26.8594 80.2034 26.8324 80.0406 26.8291C79.4794 26.8156 78.9165 26.824 78.3553 26.824C78.3807 26.8931 78.4078 26.9622 78.4333 27.033C78.1077 27.2302 77.7975 27.4594 77.4533 27.6145C77.1769 27.7392 76.8531 27.7543 76.5598 27.847C74.5489 28.4723 73.1315 30.2217 73.1315 32.0656C73.1315 33.9094 74.398 35.529 76.5004 36.1931C77.0294 36.3599 77.5821 36.4492 78.1264 36.574C78.0738 36.6431 78.0213 36.7122 77.9687 36.7829C78.2637 37.0273 78.5418 37.4554 78.8588 37.4874C80.4679 37.6492 80.4712 37.6121 80.7663 36.5234C81.0884 36.4593 81.4207 36.4054 81.7479 36.3262C83.4706 35.915 84.8117 35.0049 85.3848 33.2824C86.1647 30.9363 84.7557 28.6156 82.2176 27.8251ZM78.1739 34.7858C76.3597 34.4723 75.5492 33.6801 75.5357 32.2442C75.5204 30.5487 76.3156 29.6369 78.1739 29.2796V34.7858ZM80.6747 34.7453V29.2779C82.4584 29.5965 83.3265 30.5993 83.2875 32.197C83.2552 33.4762 82.1667 34.5582 80.6747 34.7453Z" fill="white"/>
<path d="M131.211 13.8786C130.898 11.8393 129.743 11.0994 127.673 11.3134C126.905 11.3926 126.232 11.9859 125.319 11.396C124.824 11.0758 123.941 11.3033 123.241 11.3741C123.044 11.3943 122.737 11.728 122.732 11.9252C122.724 12.2269 122.919 12.7949 123.047 12.8016C123.819 12.837 123.778 13.3106 123.775 13.8432C123.761 15.8656 123.768 17.8881 123.763 19.9106C123.763 20.1785 123.731 20.4448 123.714 20.7229C123.375 20.7482 123.124 20.7667 122.829 20.7886C122.512 22.1673 122.612 22.3021 123.912 22.3122C124.59 22.3173 125.269 22.3105 125.947 22.3072C127.223 22.3021 127.361 22.1032 126.981 20.7853C126.713 20.7532 126.44 20.7212 126.138 20.6858V18.8387C126.486 18.933 126.781 19.0291 127.081 19.0898C129.055 19.4943 130.577 18.7797 131.035 17.0235C131.296 16.0224 131.367 14.8999 131.211 13.8786ZM129.043 15.8589C128.948 16.7977 128.42 17.3774 127.693 17.428C126.442 17.5139 126.098 17.1971 126.094 15.955V15.1982C126.096 14.9454 126.096 14.6926 126.096 14.4415C126.099 13.3864 126.459 12.9971 127.495 12.9246C128.334 12.8673 128.956 13.4151 129.044 14.3471C129.092 14.8477 129.094 15.3583 129.043 15.8589Z" fill="white"/>
<path d="M199.236 13.7622C198.9 11.9167 197.824 11.16 195.919 11.3133C195.292 11.3639 194.682 11.6201 194.177 11.7532C193.802 11.5695 193.566 11.3791 193.31 11.3471C192.866 11.2931 192.408 11.3369 191.957 11.3403C190.643 11.3538 190.531 11.5072 190.882 12.8605C191.143 12.8942 191.415 12.9313 191.703 12.9684V20.6959C191.369 20.7481 191.099 20.7903 190.847 20.829C190.621 22.2869 190.638 22.3122 192.045 22.3138C192.864 22.3155 193.683 22.2886 194.502 22.2953C194.985 22.2987 195.248 22.1335 195.219 21.6093C195.197 21.1897 195.304 20.706 194.631 20.7464C194.156 20.7751 194.061 20.5088 194.075 20.1144C194.09 19.7015 194.078 19.2886 194.078 18.8184C194.427 18.911 194.694 18.9869 194.962 19.0509C197.196 19.5835 198.707 18.729 199.193 16.506C199.385 15.6262 199.397 14.6487 199.236 13.7622ZM196.849 16.4723C196.742 17.1094 196.233 17.4296 195.545 17.4262C194.329 17.4195 194.073 17.1818 194.073 15.9852V15.2302H194.08C194.08 14.9504 194.078 14.6706 194.08 14.3909C194.085 13.3948 194.371 13.0729 195.38 12.9364C196.192 12.8268 196.835 13.2178 196.935 14.0791C197.025 14.8644 196.977 15.6886 196.849 16.4723Z" fill="white"/>
<path d="M122.023 18.1021C122.02 17.9319 121.916 17.6251 121.832 17.615C121.123 17.5307 121.294 17.0066 121.292 16.5937C121.286 15.1055 121.299 13.619 121.306 12.1308C121.306 11.7094 121.275 11.3353 120.696 11.3386C118.554 11.3471 116.413 11.342 114.229 11.342C114.071 12.2538 114.075 12.2504 114.722 12.96C114.79 13.0341 114.839 13.1707 114.824 13.2667C114.621 14.4937 114.427 15.7257 114.171 16.9442C114.124 17.1701 113.807 17.5173 113.625 17.5105C112.71 17.4751 112.825 18.0869 112.822 18.6397C112.817 19.2852 112.844 19.9324 112.82 20.5762C112.798 21.1257 113.044 21.3464 113.576 21.3229C113.88 21.3094 114.185 21.3195 114.592 21.3195C114.592 20.7734 114.626 20.3032 114.583 19.8397C114.527 19.2262 114.733 18.9768 115.384 19.0055C116.455 19.051 117.53 19.0206 118.603 19.0223C119.677 19.0246 120.233 19.5453 120.272 20.5847C120.273 20.642 120.272 20.6976 120.275 20.7532C120.306 21.4729 120.857 21.2875 121.277 21.3161C121.706 21.3448 122.066 21.3009 122.047 20.7127C122.018 19.8431 122.045 18.9717 122.023 18.1021ZM118.91 13.7201C118.888 14.947 118.904 16.1757 118.904 17.4684H116.591C116.777 16.1774 117.027 14.9588 117.106 13.7285C117.159 12.9414 117.512 12.842 118.169 12.8268C118.883 12.81 118.92 13.1825 118.91 13.7201Z" fill="white"/>
<path d="M95.4048 37.5514C93.9602 37.8784 93.0887 37.5514 92.9599 36.5469C92.8276 35.5256 92.8158 34.4907 92.7412 33.284C91.8375 34.5379 91.0118 35.6789 90.1911 36.825C89.7656 37.4199 88.3448 37.8362 87.7479 37.4654C87.5784 37.3609 87.5106 36.9952 87.5072 36.7458C87.4868 35.2306 87.4987 33.7138 87.4987 32.1969V31.3391C87.1528 31.3037 86.8815 31.275 86.6154 31.2481C86.2847 29.9773 86.3661 29.8694 87.6293 29.8677C89.0817 29.8655 89.8074 30.5756 89.8063 31.9981V34.4132C90.7456 33.0767 91.573 31.9071 92.3902 30.7307C92.9243 29.9621 93.9416 29.5644 94.7707 29.9065C94.9639 29.9857 95.1182 30.3835 95.1267 30.6396C95.1674 32.0149 95.1538 33.3919 95.1657 34.7671C95.1691 35.1244 95.1962 35.4834 95.2149 35.8694C95.5506 35.9081 95.8219 35.9402 96.0881 35.9705C96.3848 37.1216 96.2813 37.3525 95.4048 37.5514Z" fill="white"/>
<path d="M195.864 35.9875C195.794 36.4408 195.823 37.2094 195.642 37.2633C194.921 37.4706 194.102 37.6105 193.387 37.4622C193.014 37.3846 192.595 36.6785 192.524 36.2066C192.386 35.3032 192.485 34.3644 192.341 33.3482C192.163 33.5959 191.983 33.8453 191.805 34.0948C191.252 34.8734 190.645 35.6201 190.164 36.4408C189.646 37.3206 188.983 37.6442 187.954 37.5667C187.251 37.5127 187.103 37.2498 187.112 36.6448C187.132 34.9088 187.118 33.1712 187.118 31.3493C186.808 31.3122 186.561 31.2819 186.318 31.2532C185.955 30.0819 186.094 29.8729 187.225 29.8662C188.732 29.856 189.482 30.6122 189.475 32.1347C189.472 32.792 189.475 33.4493 189.643 34.1521C190.472 32.9673 191.303 31.7858 192.127 30.5976C192.554 29.9808 193.838 29.5695 194.49 29.9218C194.662 30.0145 194.762 30.3768 194.767 30.6178C194.797 32.0218 194.791 33.4257 194.796 34.8279V35.856C195.152 35.8998 195.423 35.9335 195.864 35.9875Z" fill="white"/>
<path d="M154.815 18.9551C153.452 19.4371 152.358 19.1624 152.131 18.2388C151.935 17.4382 151.979 16.577 151.928 15.7427C151.909 15.4377 151.924 15.1326 151.924 14.6135C150.99 15.9298 150.154 17.0961 149.329 18.2691C148.886 18.8961 147.536 19.3292 146.899 18.9517C146.716 18.8438 146.65 18.4326 146.645 18.1579C146.612 16.4455 146.614 14.7332 146.602 13.0208C146.602 12.9956 146.582 12.9703 146.545 12.8809C146.27 12.8388 146.024 12.8001 145.722 12.7529V11.3473C146.643 11.3473 147.514 11.3135 148.377 11.3776C148.542 11.3894 148.798 11.7804 148.805 12.0029C148.847 13.2281 148.825 14.4551 148.981 15.7512C149.266 15.3601 149.556 14.9708 149.834 14.5748C150.465 13.6798 151.075 12.7697 151.728 11.8916C151.897 11.6641 152.17 11.418 152.43 11.3692C154.013 11.0675 154.24 11.2731 154.239 12.8489C154.237 14.3321 154.237 15.8152 154.237 17.3388C154.591 17.3759 154.863 17.4045 155.195 17.4399C155.154 17.986 155.641 18.6635 154.815 18.9551Z" fill="white"/>
<path d="M204.946 37.6341C203.723 37.8263 202.886 37.3409 202.825 36.3195C202.767 35.3454 202.813 34.3645 202.648 33.3212C201.816 34.4976 200.985 35.6723 200.152 36.847C199.74 37.4268 198.347 37.8431 197.755 37.4824C197.565 37.3661 197.479 36.9617 197.477 36.6886C197.467 35.2577 197.477 33.8268 197.528 32.3976C197.553 31.7083 197.53 31.1387 196.624 31.2465C196.387 29.8999 196.41 29.8696 197.626 29.8662C199.014 29.8606 199.708 30.5409 199.707 31.9072C199.705 32.6589 199.707 33.4106 199.871 34.2482C200.107 33.9313 200.351 33.6195 200.576 33.2943C201.265 32.3049 201.926 31.2954 202.647 30.3297C202.816 30.1021 203.174 29.8881 203.448 29.8847C205.363 29.8595 205.071 29.6555 205.09 31.4454C205.103 32.8999 205.091 34.3561 205.091 35.8645C205.444 35.9049 205.734 35.9369 206.012 35.9673C206.253 37.2886 206.149 37.4437 204.946 37.6341Z" fill="white"/>
<path d="M149.485 37.6307C148.249 37.8549 147.397 37.415 147.326 36.4139C147.253 35.3875 147.309 34.351 147.309 33.0431C146.724 33.8336 146.28 34.4218 145.848 35.0184C145.583 35.3824 145.281 35.7313 145.093 36.1324C144.463 37.4774 143.415 37.8144 141.957 37.4184V31.4285C141.587 31.3493 141.297 31.287 141.012 31.2263C140.751 29.9336 140.805 29.8645 142.082 29.8662C143.493 29.8673 144.196 30.5763 144.191 31.9931C144.19 32.6825 144.191 33.3718 144.191 34.0628C144.261 34.0847 144.332 34.1066 144.403 34.1285C145.146 33.065 145.955 32.0403 146.607 30.9246C147.123 30.0448 147.781 29.7819 148.75 29.8409C149.362 29.878 149.515 30.0853 149.507 30.6448C149.483 32.3774 149.498 34.11 149.498 35.8763C149.854 35.9083 150.125 35.9319 150.388 35.9555C150.693 37.2212 150.576 37.4319 149.485 37.6307Z" fill="white"/>
<path d="M310.301 14.9067C310.903 14.268 311.236 13.6427 310.949 12.8067C310.647 11.9253 309.979 11.5478 309.128 11.3877C308.935 11.3506 308.735 11.3438 308.538 11.3438C307.1 11.3422 305.663 11.3287 304.226 11.3674C303.952 11.3759 303.503 11.5545 303.452 11.7399C303.35 12.1191 303.194 12.6517 303.876 12.8202C304.009 12.8539 304.16 13.1455 304.164 13.3225C304.187 14.5258 304.194 15.7326 304.159 16.9359C304.152 17.1432 303.882 17.3303 303.782 17.5477C303.626 17.8865 303.443 18.2387 303.418 18.596C303.409 18.7174 303.838 18.9837 304.072 18.9887C305.564 19.0208 307.06 18.9769 308.553 19.0005C309.701 19.0191 310.627 18.6517 311.09 17.5663C311.527 16.5399 311.176 15.6584 310.301 14.9067ZM306.527 12.7427C307.065 12.7697 307.582 12.7191 308.048 12.8472C308.326 12.923 308.75 13.3258 308.713 13.4994C308.65 13.7994 308.323 14.1803 308.028 14.268C307.594 14.3977 307.088 14.3017 306.527 14.3017V12.7427ZM307.985 17.546H306.531V15.7966C307.055 15.7966 307.594 15.6786 308.038 15.8337C308.408 15.9618 308.87 16.3764 308.926 16.7219C309.011 17.2393 308.553 17.5477 307.985 17.546Z" fill="white"/>
<path d="M249.898 31.1742C249.828 31.1337 249.759 31.095 249.689 31.0545C249.387 31.5264 248.994 31.9629 248.797 32.4753C248 34.5348 247.287 36.6247 246.498 38.6876C245.71 40.7505 244.725 41.2106 242.544 40.7404C241.741 40.5668 241.978 40.0258 241.998 39.5691C242.022 39.0196 242.449 39.1039 242.819 39.1545C244.074 39.328 244.687 38.7516 244.621 37.3882C243.902 37.5129 243.692 37.0393 243.509 36.4646C243.104 35.1871 242.644 33.9281 242.229 32.6522C242.029 32.0388 241.924 31.3697 240.988 31.4556C240.988 31.0848 240.908 30.7494 241.01 30.4848C241.105 30.2421 241.393 30.0719 241.603 29.8781C241.634 29.8511 241.714 29.8731 241.77 29.8747C243.896 29.9169 243.389 29.5107 244.036 31.5045C244.493 32.9118 244.896 34.3343 245.393 35.9809C245.94 34.3814 246.42 32.9843 246.892 31.6107C246.595 31.3933 246.224 31.2584 246.107 31.0073C245.798 30.345 246.149 29.8882 246.895 29.8764C247.46 29.8663 248.024 29.868 248.589 29.8747C249.93 29.8933 249.92 29.6304 249.898 31.1742Z" fill="white"/>
<path d="M218.295 18.4208C218.236 18.6635 217.951 18.9668 217.714 19.0275C217.258 19.1438 216.763 19.1455 216.286 19.1253C215.483 19.0899 215.06 18.6517 215.028 17.8376C215.003 17.1938 215.023 16.55 215.023 15.741C214.155 15.741 213.324 15.7174 212.499 15.768C212.378 15.7747 212.2 16.1354 212.188 16.3393C212.149 16.9814 212.159 17.6286 212.185 18.2741C212.207 18.8 212.036 19.0292 211.461 19.0123C209.696 18.9618 209.842 19.2466 209.842 17.4786C209.842 16.1876 209.838 14.8983 209.842 13.6073C209.843 13.218 209.767 12.9719 209.314 12.7966C209.084 12.7073 208.967 12.1461 208.948 11.7905C208.941 11.654 209.347 11.386 209.579 11.3691C212.051 11.177 212.053 11.1888 212.188 13.636C212.195 13.7742 212.222 13.9124 212.246 14.1146H215.016C215.016 13.4287 215.038 12.7377 215.01 12.0483C214.988 11.5393 215.191 11.3725 215.695 11.3455C217.314 11.2562 217.31 11.2377 217.305 12.8775C217.302 14.3337 217.304 15.7899 217.304 17.3775C218.217 17.2696 218.465 17.7298 218.295 18.4208Z" fill="white"/>
<path d="M263.73 17.9436C263.636 17.6318 263.203 17.4212 262.754 17.0099V13.019C262.991 12.9296 263.283 12.9043 263.33 12.7847C263.461 12.4476 263.539 12.0718 263.539 11.7094C263.541 11.583 263.257 11.3454 263.105 11.3471C261.36 11.3639 259.609 11.3521 257.871 11.4869C256.811 11.5695 256.152 12.4206 256.006 13.4588C255.84 14.6403 256.469 15.3465 257.449 15.8706C257.201 16.297 257.018 16.7133 256.742 17.0554C256.521 17.3302 256.208 17.6554 255.896 17.7043C255.377 17.7852 255.245 18.0785 255.355 18.4425C255.438 18.7139 255.723 19.0813 255.967 19.1217C257.472 19.3728 257.805 19.1807 258.53 17.8358C258.703 17.5156 258.886 17.197 259.014 16.8599C259.29 16.1268 259.765 15.8875 260.579 16.2246C260.579 16.7436 260.545 17.3015 260.587 17.8509C260.66 18.8049 261.009 19.1133 261.977 19.1386C262.257 19.1453 262.54 19.0914 262.82 19.1032C263.686 19.1436 263.941 18.6397 263.73 17.9436ZM260.477 14.8628C259.727 14.6656 259.058 14.5594 258.468 14.2847C258.33 14.2223 258.349 13.3206 258.495 13.2566C259.092 12.997 259.766 12.9128 260.575 12.7257C260.536 13.5616 260.512 14.0841 260.477 14.8628Z" fill="white"/>
<path d="M165.271 18.1612C165.249 18.8286 164.93 19.0595 164.34 19.0882C163.947 19.1084 163.54 19.1809 163.16 19.1152C162.424 18.9904 161.922 18.5961 161.934 17.7635C161.943 17.1247 161.936 16.486 161.936 15.7899H159.081C159.081 16.5871 159.055 17.3641 159.089 18.1376C159.116 18.7562 158.969 19.068 158.248 19.0242C156.802 18.9365 156.749 19.3865 156.753 17.5107C156.754 16.0225 156.753 14.536 156.753 13.0444C156.468 12.8894 156.037 12.8 155.89 12.5455C155.523 11.9186 155.918 11.3489 156.661 11.3523C157.392 11.3557 158.312 11.1484 158.792 11.5073C159.16 11.7804 158.965 12.7916 159.031 13.4742C159.052 13.6916 159.111 13.904 159.159 14.145H161.929C161.929 13.4388 161.949 12.7461 161.922 12.0568C161.904 11.5714 162.044 11.3405 162.582 11.3455C164.574 11.3658 164.204 11.1703 164.231 12.9197C164.252 14.3759 164.235 15.832 164.235 17.3742C164.889 17.3826 165.293 17.4584 165.271 18.1612Z" fill="white"/>
<path d="M228.177 18.3685C228.138 18.8303 227.982 19.0291 227.531 19.046C227.222 19.0578 226.914 19.1218 226.605 19.1303C225.339 19.164 224.881 18.7224 224.85 17.4381C224.838 16.9106 224.849 16.3831 224.849 15.7915H222.056C222.056 16.6106 222.031 17.4162 222.065 18.2185C222.087 18.7679 221.956 19.0359 221.322 19.019C219.442 18.9701 219.75 19.2179 219.733 17.4769C219.721 16.1842 219.728 14.8932 219.743 13.6005C219.749 13.2028 219.696 12.955 219.226 12.7966C218.996 12.7207 218.797 12.2202 218.796 11.9101C218.792 11.7264 219.186 11.4061 219.426 11.3792C220.096 11.3067 220.784 11.3067 221.454 11.3842C221.673 11.4078 221.998 11.7449 222.022 11.9674C222.097 12.6567 222.049 13.3612 222.049 14.1196H224.847C224.847 13.4657 224.872 12.778 224.838 12.0921C224.811 11.5545 224.994 11.337 225.557 11.3421C227.471 11.3556 227.132 11.2022 227.149 12.8876C227.165 14.3455 227.153 15.8016 227.153 17.3758C227.994 17.3033 228.234 17.6522 228.177 18.3685Z" fill="white"/>
<path d="M258.388 37.0511C258.395 37.2011 258.01 37.4893 257.79 37.5028C256.946 37.5584 256.096 37.5381 255.25 37.5263C254.852 37.5213 254.358 37.6629 254.345 36.9769C254.335 36.4224 254.319 35.9117 255.182 36.0938V31.3562H253.56C253.397 32.5696 253.309 33.7696 253.06 34.9359C252.802 36.1511 252.034 37.0376 250.877 37.5567C250.486 37.732 250.018 37.9477 249.823 37.3645C249.669 36.9044 248.978 36.3769 249.93 35.9134C251.015 35.3825 250.977 34.2651 251.098 33.2792C251.171 32.6741 251.111 32.0505 251.111 31.459C250.777 31.3107 250.34 31.255 250.186 31.0191C249.826 30.4697 250.196 29.8899 250.866 29.8848C252.87 29.8646 254.875 29.8815 256.879 29.8545C257.447 29.8477 257.52 30.1376 257.517 30.591C257.507 32.1635 257.517 33.7359 257.52 35.3084C257.52 35.6741 257.483 35.9926 258.015 36.1258C258.217 36.1764 258.375 36.7241 258.388 37.0511Z" fill="white"/>
<path d="M122.549 37.5262C121.842 37.5279 121.137 37.5481 120.432 37.5245C120.081 37.5127 119.569 37.7082 119.564 37.0509C119.559 36.5217 119.372 35.8611 120.417 36.0852C120.417 34.565 120.428 33.1425 120.396 31.7234C120.396 31.5852 120.139 31.3611 119.979 31.3392C119.571 31.2852 119.15 31.3206 118.691 31.3206C118.484 33.9886 118.706 36.8217 115.281 37.8296C115.084 37.4301 114.857 37.0745 114.738 36.6869C114.684 36.5099 114.777 36.1459 114.911 36.0785C116.013 35.524 116.193 34.4993 116.3 33.4577C116.368 32.7937 116.312 32.1161 116.312 31.4454C116.229 31.4706 116.144 31.4942 116.059 31.5195C115.818 31.2381 115.457 30.9886 115.366 30.665C115.213 30.1392 115.493 29.8544 116.103 29.8611C118.078 29.883 120.057 29.8763 122.034 29.851C122.566 29.8442 122.714 30.0617 122.707 30.5504C122.689 32.0386 122.7 33.5268 122.7 35.015V35.9622C123.021 36.0279 123.287 36.0835 123.545 36.1358C123.884 37.3964 123.789 37.5262 122.549 37.5262Z" fill="white"/>
<path d="M293.719 17.8443C293.57 18.237 293.52 18.8438 293.269 18.9415C292.551 19.2213 291.664 19.4707 291.06 18.773C290.236 17.8207 289.544 16.7573 288.797 15.7393C288.702 15.6078 288.617 15.468 288.424 15.1713V17.4415C289.397 17.4938 289.266 18.178 289.121 18.9853C287.917 18.9853 286.688 19.0123 285.462 18.95C285.326 18.9415 285.07 18.3887 285.133 18.1612C285.214 17.8612 285.558 17.6303 285.789 17.3708C285.862 17.4179 285.935 17.4668 286.008 17.514V12.9433C285.85 12.9129 285.694 12.8657 285.536 12.8556C284.923 12.8168 285.056 12.3652 285.029 11.9876C284.999 11.5612 285.184 11.4028 285.608 11.3539C288.354 11.0337 288.353 11.0253 288.356 13.764V14.9741C289.255 13.8079 289.962 12.8101 290.763 11.8949C291.065 11.5494 291.572 11.2326 292.016 11.1854C293.046 11.0775 293.334 11.4871 293.21 12.6803C291.864 12.8691 291.586 14.1753 290.63 14.8764C291.604 15.9247 291.925 17.4685 293.719 17.8443Z" fill="white"/>
<path d="M105.698 36.1307V37.5161C104.437 37.5161 103.201 37.5734 101.98 37.4622C101.772 37.4419 101.631 36.7021 101.426 36.2133C101.929 36.1156 102.192 36.065 102.563 35.9925C102.563 34.5684 102.635 33.1425 102.536 31.7268C102.48 30.9364 101.721 31.4184 101.288 31.3173C100.888 31.2212 100.678 31.41 100.663 31.8633C100.634 32.7296 100.617 33.606 100.471 34.4571C100.22 35.9251 99.4318 37.0391 98.0076 37.6341C97.5668 37.8178 97.187 37.8245 97.0259 37.2582C96.8936 36.7981 96.3799 36.3667 97.1514 35.9133C97.5718 35.6672 98.0178 35.1869 98.1195 34.7369C98.3636 33.66 98.4094 32.5409 98.5298 31.4993C98.0957 31.3105 97.6583 31.26 97.4955 31.0223C97.1276 30.4796 97.543 29.8763 98.2348 29.8712C100.154 29.8594 102.073 29.8813 103.993 29.8459C104.595 29.8358 104.773 30.0448 104.764 30.6212C104.737 32.3841 104.754 34.147 104.754 35.9622C105.064 36.0178 105.33 36.065 105.698 36.1307Z" fill="white"/>
<path d="M248.917 18.9988C248.21 19.0022 247.503 19.041 246.801 18.9938C246.45 18.9702 245.877 18.8657 245.812 18.6668C245.692 18.291 245.865 17.8207 245.916 17.3893C245.997 17.3859 246.077 17.3825 246.158 17.3792C245.945 17.096 245.731 16.8129 245.465 16.4589C245.163 16.7994 244.941 17.0471 244.673 17.3488C244.765 17.4634 244.882 17.5662 244.946 17.696C245.319 18.4561 244.993 18.9921 244.156 18.9988C243.349 19.0056 242.54 18.9988 241.689 18.9988V17.7314C242.983 17.278 243.442 15.9955 244.317 15.1309C244.39 15.0584 244.376 14.8578 244.344 14.7314C244.141 13.9393 242.849 12.8337 242.02 12.7225C241.97 12.7157 241.926 12.6736 241.881 12.65C241.719 11.3286 241.73 11.4264 242.932 11.2949C244.13 11.1635 244.909 11.5612 245.455 12.5876C245.636 12.9298 245.912 13.223 246.248 13.6781C246.452 13.4539 246.623 13.2651 246.723 13.1539C246.533 12.7359 246.348 12.4595 246.287 12.1595C246.17 11.5798 246.385 11.2747 247.055 11.3101C247.95 11.3573 248.851 11.3219 249.804 11.3219V12.6095C249.744 12.5556 249.683 12.5 249.624 12.4461C248.778 13.2921 247.932 14.1382 247.006 15.0634C248.037 15.9483 248.181 17.5966 249.876 17.605C250.238 18.8202 250.117 18.9938 248.917 18.9971V18.9988Z" fill="white"/>
<path d="M231.51 36.5554C231.481 36.365 231.244 36.0683 231.084 36.0582C230.355 36.0178 230.342 35.5695 230.336 35.02C230.325 33.9009 230.331 32.7751 230.203 31.6678C230.091 30.6937 229.356 29.9167 228.439 29.8931C227.185 29.8594 225.916 29.9622 224.67 30.1274C223.967 30.2201 223.772 30.7931 224.217 31.3324C224.39 31.5397 224.841 31.5886 225.165 31.5869C225.808 31.5852 226.452 31.442 227.093 31.4605C227.81 31.4807 228.019 32.0706 228.01 32.6386C228.009 32.7802 227.435 32.9774 227.103 33.0363C226.469 33.151 225.813 33.151 225.177 33.2605C223.873 33.4863 223.18 34.5026 223.324 35.9133C223.438 37.0138 224.309 37.774 225.589 37.6728C226.432 37.6071 227.254 37.2801 228.192 37.0425C228.293 37.1537 228.463 37.4976 228.629 37.4959C229.536 37.4874 230.443 37.4167 231.342 37.297C231.437 37.2852 231.545 36.7998 231.51 36.5554ZM226.696 36.2015C226.411 36.2723 225.769 35.8307 225.681 35.5172C225.592 35.2054 225.901 34.5633 226.206 34.415C226.7 34.1757 227.332 34.2245 227.89 34.1538C228.329 35.6858 227.917 35.8981 226.696 36.2015Z" fill="white"/>
<path d="M92.4789 18.0129C92.4534 17.836 92.1398 17.5747 91.9448 17.5663C91.3751 17.5427 91.3209 17.2259 91.3242 16.786C91.3276 15.7478 91.3429 14.7096 91.2954 13.6731C91.2276 12.2017 90.4528 11.3843 88.9777 11.3203C88.0316 11.2798 87.0652 11.3439 86.1293 11.4888C84.7797 11.6978 84.6728 12.045 85.4426 13.1135C86.2242 13.041 86.977 12.9264 87.7315 12.9096C88.7505 12.8877 89.0811 13.3158 88.9743 14.4399C88.0452 14.5326 87.1771 14.5882 86.3158 14.7096C84.9272 14.9068 84.1811 15.9028 84.3049 17.3303C84.405 18.4764 85.2646 19.223 86.6142 19.1286C87.4585 19.0697 88.2842 18.7579 89.1761 18.5455C89.7474 19.1708 91.4955 19.4051 92.2364 18.8152C92.4246 18.6652 92.5145 18.2708 92.4789 18.0129ZM87.7756 17.6994C87.1771 17.7972 86.6888 17.5275 86.66 16.9764C86.6413 16.6073 86.9448 16.0427 87.2669 15.8792C87.7519 15.6315 88.3775 15.6584 88.9455 15.5674C89.1337 17.0405 88.8488 17.5225 87.7756 17.6994Z" fill="white"/>
<path d="M208.539 17.9689C208.489 17.7886 208.214 17.5257 208.063 17.5408C207.385 17.6065 207.331 17.2324 207.336 16.72C207.346 15.6835 207.331 14.6453 207.314 13.6088C207.295 12.4628 206.868 11.8038 205.793 11.46C204.131 10.9274 202.544 11.2695 200.949 11.9218C201.132 12.3785 201.283 12.7577 201.429 13.1234C203.802 12.9515 205.024 13.3493 205.093 14.3167C205.025 14.3588 204.957 14.4347 204.882 14.4431C204.074 14.5341 203.261 14.6015 202.453 14.6993C201.198 14.8526 200.21 15.9498 200.288 17.0807C200.376 18.3498 201.317 19.2296 202.68 19.1284C203.524 19.0661 204.35 18.7509 205.311 18.5183C205.357 18.5807 205.459 18.7897 205.623 18.9228C206.057 19.2734 208.104 19.1605 208.455 18.729C208.595 18.5571 208.606 18.2032 208.539 17.9689ZM203.833 17.6521C203.48 17.6756 202.927 17.3403 202.768 17.02C202.543 16.5667 202.683 16.0054 203.336 15.8554C203.845 15.7375 204.367 15.6684 204.92 15.5706C205.191 17.0436 204.926 17.5796 203.833 17.6521Z" fill="white"/>
<path d="M111.435 15.773C112.172 15.7932 112.398 15.4612 112.277 14.7921C112.248 14.6269 112.226 14.4601 112.209 14.2915C112.086 13.0157 111.638 11.932 110.327 11.4618C108.901 10.9511 107.499 10.9528 106.27 11.9741C104.754 13.2331 104.393 16.1977 105.631 17.8005C106.029 18.3162 106.675 18.7628 107.299 18.9617C108.742 19.4218 110.193 19.1319 111.601 18.6449C112.009 18.505 112.128 18.2791 111.894 17.8814C111.745 17.6286 111.652 17.3437 111.553 17.123C110.68 17.2662 109.91 17.4466 109.132 17.5072C107.864 17.6033 107.382 17.1735 107.143 15.7612H108.052C109.18 15.7612 110.309 15.7393 111.435 15.773ZM108.625 12.7494C109.352 12.7427 109.759 13.1657 109.863 14.1432H107.382C107.421 13.3073 107.925 12.7578 108.625 12.7494Z" fill="white"/>
<path d="M166.899 30.1257C165.483 29.465 164.027 29.4381 162.719 30.3532C161.363 31.3021 161.005 32.7448 161.17 34.3021C161.3 35.529 161.661 36.7307 162.919 37.2801C164.747 38.079 166.536 37.7049 168.289 36.9683C167.942 35.5998 167.943 35.6099 166.707 35.8695C166.266 35.9605 165.815 36.0279 165.366 36.0431C164.101 36.0852 163.591 35.6318 163.499 34.3459C163.799 34.3307 164.1 34.3038 164.398 34.3021C165.529 34.2987 166.658 34.3223 167.787 34.292C168.021 34.2852 168.391 34.1504 168.457 33.9818C168.928 32.7717 168.096 30.6836 166.899 30.1257ZM163.557 32.7128C163.715 31.8262 164.083 31.3274 164.883 31.2987C165.778 31.265 166.075 31.8667 166.246 32.7128H163.557Z" fill="white"/>
<path d="M140.406 17.556C140.087 17.5358 139.755 17.5139 139.318 17.4869C139.318 16.1504 139.331 14.8375 139.314 13.5246C139.297 12.3128 138.516 11.3825 137.312 11.342C136.168 11.3032 135.015 11.4414 133.868 11.5459C133.336 11.5948 133.017 11.8308 133.161 12.4931C133.312 13.1774 133.721 13.1319 134.226 13.0527C134.67 12.9836 135.118 12.9178 135.566 12.9077C136.744 12.8808 136.908 13.0324 137.173 14.3285C136.942 14.3909 136.71 14.4819 136.471 14.5088C135.827 14.5847 135.179 14.6201 134.536 14.6942C133.192 14.8459 132.202 15.9144 132.297 17.0908C132.405 18.4054 133.35 19.2498 134.791 19.1268C135.6 19.0577 136.385 18.7156 137.242 18.4779C137.712 19.4588 138.65 19.1538 139.538 19.0156C140.669 18.8386 140.739 18.724 140.406 17.556ZM135.823 17.6993C135.216 17.8004 134.748 17.5274 134.725 16.9712C134.709 16.6004 134.998 16.0459 135.315 15.8791C135.772 15.6364 136.376 15.6684 136.914 15.5858C137.202 17.0672 136.954 17.5105 135.823 17.6993Z" fill="white"/>
<path d="M128.376 29.7044C126.005 29.6825 124.398 31.3207 124.381 33.7696C124.366 36.1493 125.839 37.6712 128.174 37.6864C130.716 37.7016 132.184 36.2673 132.203 33.7544C132.221 31.2365 130.794 29.7264 128.376 29.7044ZM129.485 35.4179C128.966 36.3668 127.557 36.3381 127.08 35.3656C126.565 34.314 126.545 33.1662 127.135 32.155C127.367 31.7606 128.008 31.4218 128.483 31.3915C129.146 31.3511 129.588 31.8853 129.719 32.5578C129.798 32.9673 129.81 33.3904 129.875 34.0342C129.788 34.3628 129.742 34.946 129.485 35.4179Z" fill="white"/>
<path d="M298.443 11.1583C296.12 11.1533 294.543 12.7881 294.543 15.2016C294.542 17.6959 295.946 19.1521 298.352 19.1521C300.757 19.1521 302.321 17.706 302.338 15.1645C302.355 12.7055 300.856 11.1634 298.443 11.1583ZM299.596 16.8381C299.354 17.1886 298.796 17.5105 298.384 17.5038C297.972 17.4971 297.392 17.1634 297.194 16.8044C296.602 15.7325 296.705 14.5696 297.271 13.5094C297.77 12.5791 299.131 12.6078 299.608 13.555C299.862 14.0606 299.927 14.6606 300.086 15.2471C299.93 15.8049 299.893 16.4117 299.596 16.8381Z" fill="white"/>
<path d="M280.802 29.9908C279.17 29.3217 277.199 29.7549 276.176 31.0054C275.086 32.3403 275.005 35.1329 276.119 36.4458C276.512 36.9076 277.114 37.2885 277.695 37.4824C279.086 37.9475 280.478 37.6576 281.837 37.2262C282.26 37.093 282.555 36.9211 282.312 36.3852C282.116 35.9487 282.077 35.5105 281.341 35.7161C280.573 35.9301 279.733 36.0144 278.935 35.9739C278.062 35.9301 277.7 35.3571 277.724 34.3088C278.023 34.3088 278.326 34.3105 278.63 34.3088C279.757 34.3037 280.888 34.3341 282.014 34.2666C282.263 34.2515 282.673 33.9144 282.702 33.6886C282.904 32.0167 282.105 30.5268 280.802 29.9908ZM277.678 32.7363C277.894 31.8667 278.26 31.3071 279.101 31.3071C279.942 31.3071 280.256 31.8616 280.391 32.7363H277.678Z" fill="white"/>
<path d="M169.916 11.1584C167.593 11.1499 166.001 12.7814 166.005 15.1679C166.008 17.7701 167.339 19.1589 169.825 19.1504C172.332 19.1437 173.807 17.6639 173.799 15.1679C173.79 12.6937 172.312 11.1651 169.916 11.1584ZM171.145 16.7808C170.915 17.369 170.411 17.5898 169.784 17.5561C169.145 17.5207 168.621 17.1988 168.55 16.6072C168.439 15.7072 168.431 14.7718 168.553 13.8735C168.634 13.2651 169.158 12.9061 169.843 12.8673C170.54 12.8269 170.993 13.1673 171.215 13.7606C171.386 14.2224 171.423 14.7347 171.537 15.3061C171.417 15.7712 171.334 16.2954 171.145 16.7808Z" fill="white"/>
<path d="M110.514 29.7043C108.122 29.6487 106.508 31.2515 106.491 33.7003C106.475 36.1374 107.883 37.6576 110.185 37.6913C112.778 37.7284 114.232 36.316 114.265 33.7323C114.295 31.2582 112.898 29.7582 110.514 29.7043ZM111.76 35.0166C111.608 35.716 111.108 36.0413 110.426 36.075C109.68 36.1121 109.124 35.7312 109.02 35.02C108.907 34.2363 108.905 33.4155 109.007 32.6284C109.105 31.8683 109.656 31.3307 110.446 31.3475C111.24 31.3627 111.692 31.9273 111.84 32.6925C111.903 33.0177 111.913 33.3548 111.955 33.7711C111.899 34.1368 111.857 34.5818 111.76 35.0166Z" fill="white"/>
<path d="M159.65 37.5955C157.961 37.8904 156.774 37.7168 156.893 35.5174C156.905 35.2679 156.895 35.0185 156.895 34.6764C155.569 34.9561 154.346 35.3118 153.154 34.6797C151.761 33.9415 152.227 32.5427 152.068 31.3427C151.757 31.309 151.486 31.2786 151.222 31.2483C150.899 29.9624 150.967 29.8713 152.237 29.8663C154.334 29.8579 154.314 29.8596 154.416 31.9511C154.436 32.3657 154.591 33.0517 154.828 33.1191C155.391 33.2826 156.044 33.1764 156.652 33.114C156.747 33.1039 156.859 32.7483 156.869 32.5477C156.905 31.9039 156.913 31.2567 156.898 30.6112C156.886 30.0989 157.039 29.8629 157.619 29.8528C159.241 29.8258 159.245 29.8006 159.25 31.4034C159.253 32.8612 159.25 34.3191 159.25 35.7955C159.57 35.9134 159.913 35.9472 160.113 36.1309C160.542 36.5286 160.236 37.4943 159.65 37.5955Z" fill="white"/>
<path d="M265.076 32.8374C264.255 32.6773 263.396 32.716 262.365 32.652C262.365 32.0031 262.345 31.3172 262.37 30.6329C262.392 30.0531 262.153 29.8256 261.568 29.8593C260.949 29.8964 260.325 29.8998 259.706 29.8627C259.093 29.8256 258.809 30.1323 258.976 30.6548C259.084 30.9953 259.474 31.2498 259.739 31.543C259.817 31.4975 259.895 31.4537 259.973 31.4099C259.973 33.1711 259.989 34.934 259.962 36.6952C259.954 37.2851 260.101 37.5649 260.764 37.5413C262.033 37.4975 263.302 37.5379 264.572 37.5194C266.012 37.4975 267.017 36.6413 267.148 35.3604C267.273 34.1132 266.515 33.1172 265.076 32.8374ZM264.588 35.6874C263.959 35.9503 263.248 36.0244 262.456 36.193V34.0374C263.27 33.9952 264.121 33.7694 264.628 34.5649C264.803 34.8413 264.745 35.6216 264.588 35.6874Z" fill="white"/>
<path d="M277.597 14.1836C276.906 14.1397 276.209 14.1768 275.426 14.1768C275.426 13.3392 275.458 12.6398 275.407 11.9471C275.392 11.7414 275.151 11.3909 274.998 11.3825C274.079 11.3285 273.155 11.3555 272.26 11.3555C272.103 12.1892 272.402 12.7634 273.157 13.078V18.9852C274.917 18.9852 276.524 19.0408 278.125 18.965C279.064 18.9195 279.732 18.333 280.066 17.438C280.66 15.8538 279.49 14.3015 277.597 14.1836ZM277.867 16.7167C277.818 17.3184 277.316 17.5779 276.701 17.5409C276.616 17.5358 276.531 17.5409 276.446 17.5409C276.431 17.5762 276.417 17.6133 276.402 17.6487C276.094 17.5206 275.56 17.4397 275.521 17.256C275.417 16.7588 275.356 15.874 275.58 15.7645C276.073 15.5285 276.784 15.5673 277.347 15.7139C277.603 15.7796 277.896 16.3813 277.867 16.7167Z" fill="white"/>
<path d="M236.231 15.0971C235.636 14.6522 234.861 14.3792 234.124 14.2056C233.512 14.0623 232.84 14.1769 232.057 14.1769C232.057 13.3713 232.037 12.6988 232.065 12.0314C232.086 11.5292 231.911 11.3118 231.387 11.3421C230.795 11.3741 230.197 11.396 229.609 11.3421C228.859 11.273 228.574 11.6438 228.781 12.2657C228.893 12.5994 229.331 12.8235 229.768 13.2365C229.768 14.755 229.771 16.523 229.765 18.2909C229.765 18.6819 229.771 19.0207 230.319 19.014C231.787 18.9937 233.259 19.0443 234.726 18.9718C235.709 18.9229 236.421 18.3381 236.743 17.4128C237.04 16.5634 236.974 15.655 236.231 15.0971ZM234.41 16.9864C233.915 17.9353 232.976 17.401 231.957 17.6067C232.093 16.8011 232.021 15.8387 232.332 15.6954C232.837 15.4629 233.62 15.6853 234.224 15.8943C234.405 15.9584 234.556 16.71 234.41 16.9864Z" fill="white"/>
<path d="M290.583 32.4515C289.732 32.5172 289.676 32.0217 289.681 31.3324H288.536V35.8762C288.885 36.0818 289.353 36.1947 289.46 36.4543C289.743 37.1453 289.394 37.5211 288.612 37.5228C287.71 37.5245 286.807 37.5194 285.903 37.5329C285.479 37.538 285.099 37.5363 285.111 36.9514C285.12 36.4897 285.06 36.0076 285.769 36.0683C285.844 36.0751 285.922 36.0211 286.03 35.9857V31.3459H284.871C284.82 31.9762 284.787 32.647 283.862 32.4464C283.807 32.4346 283.733 32.4599 283.696 32.4313C282.931 31.8498 283.482 31.0391 283.365 30.3448C283.345 30.2217 283.733 29.8948 283.938 29.8914C286.166 29.8577 288.395 29.8745 290.625 29.8627C291.049 29.8594 291.263 29.9942 291.234 30.4408C291.215 30.7189 291.256 31.0037 291.222 31.2801C291.168 31.7453 291.503 32.3807 290.583 32.4515Z" fill="white"/>
<path d="M190.19 12.3212C190.17 12.4577 190.185 12.601 190.185 12.7409C190.178 14.0066 190.106 14.0656 188.954 13.6914C188.685 13.4184 188.459 13.0206 188.134 12.9027C187.62 12.7173 187.298 12.9633 187.327 13.5937C187.378 14.6858 187.34 15.783 187.408 16.8751C187.423 17.1077 187.715 17.5004 187.907 17.5172C188.595 17.5779 188.441 18.0347 188.458 18.4341C188.478 18.9397 188.186 19.024 187.752 19.0139C186.904 18.9919 186.057 19.0442 185.211 19.0037C184.828 18.9852 184.256 19.2869 184.143 18.5504C184.042 17.8863 184.215 17.4549 184.995 17.5021C185.026 17.2476 185.068 17.0554 185.07 16.8633C185.075 15.5757 185.073 14.288 185.073 12.9077C184.677 12.8875 184.326 12.8706 183.926 12.8504C183.839 13.1976 183.763 13.5128 183.688 13.8145C182.366 14.0622 182.277 13.9998 182.291 12.7527C182.306 11.1836 182.074 11.3521 183.669 11.3471C185.533 11.342 187.398 11.3706 189.26 11.3319C190.014 11.3167 190.301 11.5948 190.19 12.3212Z" fill="white"/>
<path d="M271.055 17.133C270.825 18.1493 270.135 18.8252 269.158 18.9229C267.887 19.0527 266.59 18.9634 265.306 18.9061C264.599 18.874 264.289 18.5066 264.672 17.7937C264.747 17.6555 264.755 17.4836 264.799 17.3083C265.647 17.3926 266.447 17.4971 267.252 17.5375C267.576 17.5544 267.998 17.5341 268.215 17.3454C268.488 17.1077 268.758 16.6679 268.726 16.3443C268.7 16.0797 268.265 15.7881 267.948 15.6398C267.688 15.5184 267.288 15.6836 267.042 15.5521C266.778 15.4106 266.622 15.0718 266.42 14.8173C266.632 14.6623 266.824 14.4448 267.061 14.3623C267.398 14.246 267.8 14.2915 268.115 14.1448C268.324 14.0471 268.555 13.7319 268.549 13.5196C268.543 13.3055 268.3 13.0224 268.087 12.9044C267.246 12.4392 266.447 12.7965 266.203 13.7235C266.105 13.7353 265.986 13.7808 265.886 13.7572C265.481 13.6578 264.867 14.0707 264.723 13.3173C264.504 12.1713 264.704 11.61 265.576 11.4937C266.752 11.337 267.99 11.155 269.136 11.3539C270.938 11.6673 271.654 13.5213 269.994 14.8578C270.793 15.4696 271.279 16.1471 271.055 17.133Z" fill="white"/>
<path d="M274.176 32.4331C273.664 32.4214 273.169 32.4146 273.284 31.6764C273.296 31.6006 273.255 31.5163 273.226 31.373H272.126V35.8848C272.433 36.0449 272.864 36.1292 273.014 36.3786C273.377 36.9786 272.997 37.5163 272.282 37.5247C271.492 37.5331 270.702 37.5331 269.912 37.5314C268.684 37.5297 268.666 37.5045 268.854 36.1578C269.106 36.1224 269.376 36.0837 269.712 36.0365V31.3511C269.374 31.3343 269.001 31.3157 268.784 31.3056C268.508 31.7556 268.372 32.2882 268.077 32.3978C267.289 32.6893 266.892 32.3219 266.906 31.4573C266.934 29.686 266.678 29.8832 268.476 29.8731C270.253 29.8629 272.031 29.8663 273.808 29.8646H274.851C274.851 30.5253 274.822 31.0815 274.859 31.6343C274.895 32.1534 274.746 32.4466 274.176 32.4331Z" fill="white"/>
<path d="M77.5091 18.9482H73.3009V17.5629C73.6417 17.5005 73.935 17.4466 74.2537 17.3876V10.0966C73.8672 9.84717 73.4094 9.7174 73.2992 9.44773C72.9889 8.68257 73.3059 8.30673 74.1418 8.29999C75.0472 8.29325 75.9509 8.3101 76.8546 8.29493C77.2954 8.28819 77.6515 8.31516 77.6023 8.90167C77.565 9.35841 77.7346 9.92975 76.9445 9.88256C76.8631 9.87751 76.78 9.90784 76.6427 9.92975V17.2898C77.3593 17.4584 77.6481 18.0112 77.5091 18.9482Z" fill="white"/>
<path d="M181.507 18.3869C181.478 18.5437 181.23 18.7358 181.052 18.7763C180.262 18.9583 179.459 19.0897 178.66 19.2397C175.862 19.2212 174.755 17.4364 174.864 14.9066C174.974 12.3263 176.944 10.8196 179.543 11.192C179.57 11.1954 179.599 11.2005 179.626 11.2038C181.327 11.4786 181.424 11.5814 181.276 13.2802C181.256 13.5078 180.966 13.8971 180.813 13.8903C180.418 13.8752 179.843 13.7976 179.677 13.5347C179.26 12.869 178.582 12.6617 177.911 13.1875C177.268 13.6881 176.995 15.5437 177.421 16.5044C177.797 17.3504 178.499 17.6369 179.689 17.4347C179.911 17.3976 180.138 17.3875 180.359 17.3471C181.146 17.2004 181.644 17.6285 181.507 18.3869Z" fill="white"/>
<path d="M175.598 37.2683C174.471 37.4554 173.301 37.7015 172.187 37.5717C170.507 37.3745 169.639 36.3667 169.464 34.629C169.381 33.8184 169.469 32.9386 169.703 32.1566C170.218 30.4274 171.41 29.6909 173.377 29.706C173.686 29.7077 173.993 29.765 174.299 29.8105C175.769 30.0263 175.715 30.0313 175.803 31.4723C175.854 32.3251 175.537 32.588 174.754 32.4785C174.628 32.46 174.503 32.4465 174.471 32.4448C174.137 31.9307 173.994 31.4369 173.723 31.351C173.072 31.147 172.034 31.7639 171.938 32.438C171.819 33.2807 171.78 34.1757 171.951 34.9981C172.031 35.3807 172.653 35.8408 173.089 35.9133C173.755 36.0245 174.474 35.7869 175.169 35.7936C175.419 35.7953 175.858 36.0566 175.875 36.2318C175.907 36.5824 175.758 37.2414 175.598 37.2683Z" fill="white"/>
<path d="M82.8413 19.0359C82.4767 19.073 82.1156 19.1303 81.7545 19.1775C81.0288 19.2297 80.4998 18.9247 80.1014 18.3432C79.1841 17.0033 78.2736 15.6567 77.3377 14.3286C76.9494 13.7775 76.902 13.277 77.3089 12.7174C78.2312 11.4483 79.1519 10.1775 80.0352 8.88149C80.7033 7.90059 81.9189 8.04554 82.6666 8.48879C82.9023 8.62868 82.9752 9.14609 82.9854 9.49497C82.9905 9.63317 82.6293 9.88429 82.4157 9.9062C81.8036 9.96687 81.3713 10.2365 81.0491 10.7455C80.8389 11.0759 80.588 11.3809 80.354 11.6961C79.5435 12.7871 79.5413 13.8938 80.3472 15.0163C80.7219 15.5404 81.1068 16.0595 81.4781 16.5854C81.8087 17.0556 82.1427 17.4348 82.8209 17.4533C83.0651 17.4584 83.4126 17.8899 83.5059 18.1899C83.6517 18.6634 83.3686 18.982 82.8413 19.0359Z" fill="white"/>
<path d="M140.335 30.5875C140.309 30.9212 140.333 31.26 140.32 31.5954C140.301 32.0673 140.501 32.6201 139.645 32.6403C138.843 32.6589 138.66 32.3016 138.736 31.6257C138.743 31.5769 138.704 31.5212 138.658 31.3864H136.481V36.0077C136.837 36.0583 137.108 36.0954 137.368 36.1325C137.631 37.506 137.617 37.5229 136.334 37.5246C135.715 37.5246 135.094 37.5313 134.474 37.5296C133.165 37.5296 133.156 37.5178 133.383 36.1493C133.602 36.1089 133.838 36.0667 134.102 36.0178V31.4151C133.87 31.351 133.633 31.287 133.329 31.2044C133.329 30.842 133.275 30.4493 133.36 30.0887C133.387 29.9724 133.782 29.8847 134.009 29.8814C135.869 29.8645 137.731 29.8847 139.591 29.8611C140.131 29.8544 140.379 30.0347 140.335 30.5875Z" fill="white"/>
<path d="M236.071 37.0712C236.067 37.228 235.669 37.4993 235.438 37.5111C234.509 37.56 233.575 37.5634 232.648 37.5044C232.417 37.4892 232.064 37.2044 232.015 36.9887C231.93 36.6263 231.825 36.1173 232.514 36.0583C232.678 36.0448 232.946 35.7752 232.951 35.6168C232.985 34.2196 232.97 32.8224 232.97 31.3645C232.427 31.2584 231.844 31.437 231.851 30.6651C231.856 30.1089 232.005 29.8275 232.62 29.8629C233.238 29.8966 233.863 29.8949 234.48 29.8511C235.098 29.8072 235.264 30.0938 235.259 30.6466C235.245 32.187 235.237 33.7291 235.284 35.2696C235.292 35.546 235.606 35.8038 235.738 36.0887C235.886 36.4055 236.074 36.7443 236.071 37.0712Z" fill="white"/>
<path d="M180.986 36.0885V37.5228C179.767 37.5228 178.592 37.5498 177.418 37.4941C177.242 37.4857 176.95 37.0998 176.949 36.8874C176.949 36.6161 177.162 36.3245 177.345 36.0868C177.41 36.0043 177.654 36.0582 177.857 36.0464V31.3577C177.559 31.3138 177.266 31.27 176.986 31.2296C176.71 29.9386 176.76 29.8695 177.961 29.8661C179.441 29.8627 180.181 30.5886 180.184 32.0436C180.184 33.0245 180.209 34.0054 180.184 34.9846C180.17 35.5846 180.106 36.1711 180.984 36.0885H180.986Z" fill="white"/>
<path d="M283.549 19.0596C283.271 19.095 282.99 19.1236 282.708 19.1287C281.583 19.1506 281.03 18.6601 280.999 17.5326C280.962 16.218 281.006 14.9017 280.959 13.5871C280.95 13.3478 280.625 13.1354 280.538 12.8793C280.382 12.4192 280.296 11.9371 280.148 11.3338C281.182 11.3338 282 11.2832 282.802 11.3675C283.01 11.3894 283.322 11.831 283.331 12.0888C283.38 13.5147 283.351 14.9422 283.348 16.3714V17.1062C283.783 17.4113 284.294 17.5747 284.394 17.8731C284.667 18.6888 284.428 18.9483 283.549 19.0596Z" fill="white"/>
<path d="M240.946 18.8858C240.902 18.9162 240.858 18.9634 240.809 18.9701C237.871 19.4386 237.667 18.9263 237.657 16.4387C237.652 15.3179 237.657 14.1988 237.657 13.0207C236.58 12.8606 236.891 12.1173 236.955 11.3353C237.83 11.3353 238.671 11.2881 239.5 11.3724C239.693 11.3909 239.98 11.8578 239.986 12.1241C240.031 13.8314 240.009 15.5403 240.009 17.2965C241.172 17.5257 241.187 17.5544 240.946 18.8858Z" fill="white"/>
<path d="M240.203 37.4807C239.887 37.6357 239.506 37.6627 239.153 37.747C239.104 37.7958 239.053 37.8447 239.004 37.8936C238.521 37.5784 237.933 37.3492 237.58 36.9279C236.863 36.07 236.285 35.0975 235.625 34.1908C235.31 33.7577 235.342 33.3936 235.661 32.9824C236.33 32.1178 236.959 31.2212 237.634 30.3599C238.094 29.7734 239.423 29.5324 240.023 29.9588C240.213 30.0936 240.299 30.483 240.291 30.7509C240.284 30.9296 240.052 31.2245 239.881 31.2566C238.679 31.4807 238.402 32.6268 237.719 33.3582C237.653 33.4273 237.751 33.7425 237.861 33.8638C238.633 34.7099 238.952 35.9739 240.277 36.3178C240.725 36.4324 240.671 37.2498 240.203 37.4807Z" fill="white"/>
<path d="M185.427 36.901C185.32 37.1825 185.049 37.5229 184.78 37.6021C183.674 37.9308 183.038 37.6881 182.364 36.7527C181.707 35.8426 181.063 34.9224 180.465 33.9735C180.346 33.7831 180.356 33.3735 180.485 33.1881C181.141 32.2426 181.838 31.3258 182.553 30.4241C183.093 29.7432 184.166 29.5173 184.912 29.932C185.085 30.028 185.237 30.328 185.232 30.532C185.227 30.7797 185.07 31.2246 184.937 31.2381C183.761 31.3713 183.503 32.4803 182.82 33.1224C182.738 33.1982 182.681 33.2977 182.535 33.4864C183.11 34.2718 183.656 35.0505 184.244 35.7971C184.385 35.9757 184.652 36.1005 184.883 36.1527C185.317 36.2505 185.587 36.4847 185.427 36.901Z" fill="white"/>
<path d="M203.794 27.7223C202.096 29.8442 199.778 29.6099 198.271 27.0936C198.845 26.4886 199.296 26.3099 199.934 27.0296C200.693 27.8857 201.611 27.8706 202.665 27.1762C202.969 26.9773 203.247 26.7431 203.559 26.5088C204.156 26.8206 204.264 27.1374 203.794 27.7223Z" fill="white"/>
</svg>
