<svg width="171" height="50" viewBox="0 0 171 50" fill="none" xmlns="http://www.w3.org/2000/svg">
<path d="M83.4146 38.4575V29.8147H83.2218L79.8885 30.2482V31.1152L81.321 31.4674V37.5905C80.8829 37.8586 80.4104 38.0682 79.916 38.2136C79.5367 38.3522 79.136 38.4255 78.7315 38.4304C78.4987 38.4512 78.2642 38.4207 78.0449 38.341C77.8257 38.2613 77.6273 38.1345 77.4643 37.9698C77.2068 37.5252 77.0826 37.0179 77.1061 36.5068V33.2014C77.1061 32.0905 77.1061 31.0068 77.1061 29.896H76.9408L73.5249 30.3295V31.1965L74.2136 31.3861L74.9298 31.5758V37.4008C74.8938 37.7849 74.9414 38.172 75.0697 38.5365C75.198 38.9009 75.4039 39.2342 75.6736 39.5141C76.2742 39.9597 77.0163 40.1806 77.7673 40.1373H78.7866L79.8334 39.9476C80.3292 39.5412 80.8251 39.0806 81.3485 38.5929L81.8168 40.056H81.9821L85.0675 39.6496V38.7826L84.2686 38.62L83.4973 38.4304" fill="#0279C1"/>
<path d="M96.4156 32.5241C96.4553 32.142 96.412 31.756 96.2885 31.3917C96.165 31.0273 95.9642 30.693 95.6993 30.4108C95.1177 29.9719 94.3917 29.7596 93.6608 29.8147H92.6139C92.2517 29.8383 91.8922 29.8927 91.5396 29.9773L90.052 31.359L89.5561 29.8147H89.3908L87.9308 30.0315L86.4983 30.2482V31.1152L87.9032 31.4674V38.4846L86.333 39.0536V39.8935H91.4845V38.9994L89.9969 38.5659C89.9969 37.3196 89.9969 36.1817 89.9969 35.1792V32.5241C90.4218 32.2746 90.8748 32.0746 91.3467 31.928C91.7466 31.7951 92.1645 31.7221 92.5864 31.7113C92.8237 31.6842 93.0642 31.7117 93.2889 31.7916C93.5136 31.8715 93.7163 32.0017 93.8812 32.1718C94.1466 32.5934 94.2718 33.0859 94.2393 33.5807V38.6472L92.7517 39.1619V40.0289H97.8205V39.1348L96.4156 38.5659V32.5241Z" fill="#0279C1"/>
<path d="M101.044 25.9405C100.908 26.0707 100.802 26.2269 100.731 26.3994C100.66 26.5719 100.625 26.7569 100.63 26.9429C100.627 27.3047 100.765 27.6539 101.016 27.9183C101.152 28.0559 101.315 28.1653 101.495 28.2401C101.674 28.3148 101.868 28.3533 102.063 28.3533C102.258 28.3533 102.451 28.3148 102.631 28.2401C102.811 28.1653 102.974 28.0559 103.11 27.9183C103.243 27.7922 103.348 27.6406 103.419 27.4728C103.49 27.305 103.526 27.1247 103.523 26.9429C103.528 26.7569 103.494 26.5719 103.422 26.3994C103.351 26.2269 103.245 26.0707 103.11 25.9405C102.974 25.8041 102.811 25.6974 102.63 25.6273C102.45 25.5573 102.257 25.5255 102.063 25.5341C101.874 25.5309 101.686 25.5653 101.511 25.6351C101.336 25.7049 101.177 25.8088 101.044 25.9405Z" fill="#0279C1"/>
<path d="M103.22 34.2038V29.8147H103.027L99.6386 30.3024V31.1694L100.327 31.359L101.044 31.5487V38.4846L99.4458 39.0535V39.487C99.4458 39.487 99.4458 39.7309 99.4458 39.8934H104.79V39.487C104.805 39.3429 104.805 39.1977 104.79 39.0535L103.192 38.5659C103.192 37.1028 103.192 35.6669 103.192 34.2038" fill="#0279C1"/>
<path d="M115.204 29.9502H114.047H112.89H112.174V30.8713L113.441 31.2777C113.354 31.462 113.28 31.6522 113.22 31.8467L112.807 32.9033L112.339 34.258C112.174 34.7186 112.008 35.1792 111.843 35.5856C111.678 35.992 111.568 36.3713 111.457 36.6693L111.264 37.2383L109.309 32.1176C109.16 31.7269 109.031 31.3291 108.923 30.9255C108.839 30.568 108.775 30.2062 108.73 29.8418L105.259 29.9773V30.8984L106.333 31.2507C106.333 31.2507 106.526 31.7112 106.747 32.1447L107.435 33.7432L108.262 35.694C108.565 36.3713 108.84 37.0215 109.088 37.6176C109.336 38.2136 109.584 38.7555 109.777 39.2161C109.897 39.5218 110.035 39.8204 110.19 40.1102L111.457 39.8392L114.212 33.7161C114.467 33.1198 114.762 32.5405 115.094 31.9822C115.377 31.5019 115.751 31.079 116.196 30.7359V29.8418H115.452" fill="#0279C1"/>
<path d="M124.819 31.3048C124.462 30.8546 124.011 30.485 123.496 30.2211C122.779 29.9054 121.994 29.7659 121.21 29.8147C120.386 29.79 119.567 29.9474 118.813 30.2753C118.224 30.5686 117.707 30.9847 117.298 31.4945C116.937 32.0024 116.675 32.5721 116.527 33.1743C116.384 33.8059 116.31 34.4508 116.306 35.0979C116.292 35.8118 116.385 36.5239 116.582 37.2112C116.727 37.7999 117.01 38.3472 117.408 38.8097C117.822 39.2608 118.343 39.605 118.923 39.8121C119.632 40.0542 120.377 40.1734 121.127 40.1644C121.856 40.1667 122.581 40.057 123.276 39.8392C123.932 39.6441 124.555 39.3518 125.122 38.9722L124.819 37.9427C124.305 38.1546 123.769 38.3091 123.221 38.4033C122.814 38.4908 122.398 38.5362 121.981 38.5388C121.468 38.5473 120.956 38.4741 120.466 38.322C120.08 38.1744 119.738 37.9319 119.474 37.6176C119.213 37.2727 119.035 36.8745 118.951 36.4526C118.833 35.9371 118.777 35.4095 118.786 34.8811L125.452 34.5289L125.618 34.3122C125.617 33.7932 125.562 33.2756 125.452 32.7679C125.339 32.2529 125.124 31.765 124.819 31.3319M118.813 34.0413C118.774 33.7354 118.774 33.4259 118.813 33.1201C118.881 32.8128 119.002 32.5195 119.171 32.2531C119.341 31.968 119.577 31.7265 119.86 31.5487C120.216 31.3642 120.614 31.271 121.017 31.2777C121.352 31.2687 121.684 31.3433 121.981 31.4945C122.218 31.624 122.417 31.8105 122.56 32.0363C122.696 32.2713 122.789 32.5281 122.835 32.795C122.862 33.0652 122.862 33.3375 122.835 33.6078L118.813 34.0413Z" fill="#0279C1"/>
<path d="M134.708 29.625C134.362 29.624 134.018 29.6789 133.689 29.7875C133.376 29.9004 133.072 30.0362 132.78 30.1939L131.981 30.7358L131.293 31.3319L130.907 29.8146H130.714L127.684 30.3023V31.1422L129.089 31.4944V38.4845L127.463 39.0535V39.8934H132.808V39.0535L131.21 38.5658V32.0634L134.571 32.3072C134.793 32.0192 134.97 31.6994 135.094 31.3589C135.203 31.0355 135.259 30.6971 135.259 30.3565C135.274 30.2535 135.264 30.1485 135.231 30.0499C135.197 29.9512 135.141 29.8614 135.067 29.7875C135.013 29.7337 134.949 29.6914 134.877 29.6634C134.806 29.6354 134.73 29.6223 134.653 29.625" fill="#0279C1"/>
<path d="M143.246 35.2335C142.957 34.9741 142.632 34.7552 142.282 34.5833L140.987 34.0143L139.94 33.5808C139.682 33.4851 139.433 33.3672 139.196 33.2286C139.032 33.1219 138.892 32.9837 138.783 32.8222C138.74 32.6624 138.74 32.4943 138.783 32.3345C138.773 32.1714 138.805 32.0083 138.877 31.8612C138.95 31.714 139.06 31.5877 139.196 31.4947C139.515 31.2886 139.89 31.1845 140.271 31.1966C140.527 31.166 140.786 31.166 141.042 31.1966C141.383 31.2535 141.71 31.3729 142.006 31.5488L142.75 33.2015H143.521C143.521 32.7409 143.521 32.3075 143.521 31.874V30.5464C142.998 30.2693 142.429 30.0858 141.841 30.0045C141.315 29.9022 140.78 29.8478 140.243 29.842C139.646 29.8287 139.05 29.911 138.48 30.0858C138.051 30.1904 137.655 30.3948 137.323 30.6819C137.038 30.9281 136.812 31.2334 136.662 31.5759C136.531 31.9133 136.466 32.2716 136.469 32.6326C136.452 33.021 136.548 33.4061 136.745 33.7434C136.94 34.049 137.192 34.3155 137.488 34.5291C137.801 34.769 138.144 34.9692 138.508 35.1252L139.692 35.6399L140.519 36.0192C140.763 36.1175 140.994 36.2448 141.207 36.3986C141.408 36.5012 141.571 36.662 141.676 36.8591C141.788 37.058 141.845 37.2822 141.841 37.5094C141.856 37.7175 141.809 37.9254 141.706 38.1081C141.603 38.2907 141.449 38.4403 141.262 38.5389C140.801 38.7631 140.289 38.8658 139.775 38.837C139.445 38.8713 139.113 38.8713 138.783 38.837C138.434 38.7372 138.101 38.5914 137.791 38.4035L136.91 36.5882H136.552H136.194L136.359 39.4601C136.833 39.7088 137.345 39.8825 137.874 39.9749C138.508 40.1063 139.155 40.1699 139.802 40.1645C140.461 40.1692 141.117 40.0964 141.758 39.9478C142.245 39.8146 142.703 39.5942 143.108 39.2975C143.454 39.0557 143.73 38.7287 143.907 38.3493C144.071 37.9724 144.155 37.5669 144.155 37.1572C144.174 36.7686 144.109 36.3805 143.962 36.0192C143.789 35.7058 143.544 35.4366 143.246 35.2335Z" fill="#0279C1"/>
<path d="M148.124 28.3519C148.507 28.352 148.874 28.2044 149.147 27.941C149.42 27.6775 149.577 27.3192 149.584 26.9431C149.589 26.757 149.555 26.572 149.484 26.3995C149.413 26.2271 149.306 26.0708 149.171 25.9406C149.033 25.8069 148.87 25.7019 148.69 25.6321C148.51 25.5622 148.318 25.529 148.124 25.5342C147.935 25.5305 147.747 25.5645 147.572 25.634C147.396 25.7035 147.237 25.8071 147.103 25.9387C146.969 26.0702 146.864 26.227 146.793 26.3996C146.722 26.5722 146.688 26.7571 146.692 26.9431C146.684 27.1231 146.714 27.3027 146.78 27.4706C146.847 27.6385 146.948 27.791 147.077 27.9184C147.205 28.0658 147.367 28.1818 147.549 28.257C147.73 28.3323 147.927 28.3648 148.124 28.3519Z" fill="#0279C1"/>
<path d="M149.278 34.2038C149.278 32.7679 149.278 31.3048 149.278 29.8418H149.113L145.725 30.3295V31.1965L146.413 31.3861L147.13 31.5758V38.4846L145.504 39.0535C145.504 39.2161 145.504 39.3516 145.504 39.487C145.492 39.6222 145.492 39.7582 145.504 39.8934H150.849V39.0535L149.278 38.5659C149.278 37.1028 149.278 35.6669 149.278 34.2038Z" fill="#0279C1"/>
<path d="M158.756 38.2679C158.394 38.3664 158.026 38.4388 157.654 38.4846C157.37 38.5113 157.084 38.5113 156.8 38.4846C156.594 38.5152 156.384 38.4966 156.188 38.4306C155.991 38.3646 155.814 38.253 155.67 38.1053C155.428 37.7864 155.31 37.3919 155.34 36.9945V31.1694H158.37V30.0315H155.34V27.4847L154.183 27.837L153.439 29.9773L152.64 30.2754L151.869 30.5463V31.3049H153.329V37.2925C153.281 37.7429 153.281 38.1969 153.329 38.6472C153.39 38.9872 153.542 39.3051 153.769 39.5684C153.988 39.8209 154.275 40.0086 154.596 40.1103C155.035 40.2295 155.49 40.2843 155.946 40.2728C157.065 40.2673 158.168 40.0077 159.169 39.5142L159.004 38.9723L158.838 38.4034" fill="#0279C1"/>
<path d="M170.465 30.3839C170.451 30.2397 170.451 30.0946 170.465 29.9504H166.69C166.705 30.0946 166.705 30.2398 166.69 30.3839V30.8174L167.958 31.2509C167.572 32.3347 167.186 33.4455 166.773 34.5563L165.533 37.943C165.203 36.9947 164.872 36.0464 164.514 35.2336C164.156 34.4208 163.798 33.3642 163.495 32.3888C163.341 31.9837 163.221 31.5669 163.137 31.1425C163.063 30.7843 163.008 30.4226 162.972 30.0588H159.5V30.9529L160.575 31.3322C161.153 32.7681 161.732 34.2041 162.283 35.613C162.834 37.0218 163.44 38.4848 163.991 39.8937H164.735L164.239 41.2213L164.018 41.709C163.928 41.8835 163.817 42.0471 163.688 42.1966C163.562 42.3607 163.414 42.5066 163.247 42.6301C163.07 42.7434 162.874 42.8259 162.668 42.874L160.85 41.8715C160.591 41.9898 160.372 42.1777 160.217 42.4134C160.081 42.533 159.971 42.679 159.895 42.8422C159.82 43.0054 159.779 43.1822 159.776 43.3617C159.767 43.5513 159.814 43.7394 159.912 43.9031C160.01 44.0667 160.154 44.1987 160.327 44.2828C160.725 44.52 161.184 44.6421 161.649 44.635C162.028 44.6445 162.404 44.5773 162.755 44.4374C163.105 44.2976 163.423 44.0882 163.688 43.8222C164.292 43.2047 164.769 42.4778 165.093 41.6819L166.773 37.8075L168.426 33.9061C168.681 33.3097 168.975 32.7305 169.308 32.1721C169.584 31.6869 169.959 31.2627 170.409 30.9258C170.409 30.9258 170.409 30.6278 170.409 30.4923" fill="#0279C1"/>
<path d="M100.881 20.0887V12.9089L102.258 12.4212V11.2291C102.258 11.2291 101.404 11.2291 100.385 11.2291H96.721V12.367L98.429 12.9089V19.2217C98.4859 19.7077 98.4859 20.1986 98.429 20.6847C98.3578 21.1011 98.1982 21.498 97.9607 21.8497C97.7199 22.1948 97.386 22.4669 96.9965 22.6354C96.5275 22.834 96.0191 22.9265 95.5089 22.9064C94.9536 22.9332 94.3989 22.8407 93.8836 22.6354C93.498 22.4868 93.1635 22.233 92.9194 21.9039C92.6978 21.5865 92.5476 21.2263 92.4786 20.8473C92.4479 20.4233 92.4479 19.9978 92.4786 19.5739V12.9089L94.3244 12.4483V11.2562C93.609 11.3061 92.891 11.3061 92.1756 11.2562C90.4676 11.2562 87.8506 11.2562 87.8506 11.2562V12.367L89.6137 12.9089V20.3596C89.5859 21.1531 89.7763 21.9393 90.1646 22.6354C90.4866 23.1934 90.9401 23.6673 91.4869 24.0172C92.0291 24.3689 92.6383 24.6085 93.2775 24.7216C93.8658 24.8473 94.4661 24.9109 95.0681 24.9113C95.7432 24.9141 96.4169 24.8505 97.0792 24.7216C97.7521 24.6215 98.3929 24.3712 98.9524 23.9901C99.5257 23.6199 99.9985 23.1177 100.33 22.5271C100.704 21.7675 100.893 20.9326 100.881 20.0887Z" fill="#0279C1"/>
<path d="M106.718 24.5591H110.767C111.56 24.6419 112.362 24.5869 113.136 24.3965C113.756 24.2037 114.335 23.9007 114.844 23.5024C115.322 23.1603 115.725 22.7273 116.029 22.229C116.325 21.7743 116.556 21.2821 116.718 20.766C116.873 20.2875 116.992 19.7985 117.076 19.3029C117.101 18.8517 117.101 18.3995 117.076 17.9483C117.074 17.1426 116.963 16.3407 116.745 15.5641C116.564 14.741 116.207 13.9652 115.698 13.2882C115.134 12.6254 114.416 12.1052 113.605 11.771C112.584 11.356 111.486 11.1531 110.382 11.1749H104.266L104.101 12.367L105.698 12.8276V22.9876L103.935 23.5024V24.6132H106.69M108.674 13.1257H109.72C110.277 13.1187 110.833 13.1824 111.373 13.3153C111.878 13.444 112.343 13.6956 112.723 14.0468C113.155 14.4439 113.486 14.936 113.687 15.4828C113.937 16.2346 114.058 17.022 114.045 17.8128C114.039 18.4583 113.974 19.102 113.853 19.7364C113.729 20.3202 113.506 20.8791 113.191 21.3891C112.904 21.8567 112.495 22.2402 112.007 22.5C111.459 22.7957 110.841 22.9452 110.216 22.9335H109.445H108.674V13.1257Z" fill="#0279C1"/>
<path d="M118.124 23.4754V24.6134H123.964V23.3942L121.98 22.9878V14.6701L124.735 18.3819L129.859 24.9385L131.402 24.6134V23.3671C131.402 22.7439 131.402 22.0666 131.402 21.2538C131.402 20.441 131.402 19.6282 131.402 18.7341C131.402 17.84 131.402 17.0272 131.402 16.2144C131.402 15.4016 131.402 14.7243 131.402 14.1282C131.402 13.5322 131.402 13.1258 131.402 12.909L133.44 12.4213V11.2292H128.013V12.3672L129.914 12.8548L130.079 20.0075L127.628 16.8376L124.101 12.4213C123.954 12.2547 123.824 12.073 123.716 11.8795C123.57 11.6543 123.441 11.4189 123.33 11.175H121.512C120.685 11.175 119.666 11.175 118.509 11.175L118.454 12.3672L120.493 12.909L120.245 22.9065L118.124 23.4754Z" fill="#0279C1"/>
<path d="M73.4138 23.4211V24.6403C73.4138 24.6403 75.535 24.6403 76.692 24.6403C77.849 24.6403 80.0253 24.6403 80.0253 24.6403V23.4211L78.0694 22.9605V18.9778C78.6533 19.1308 79.2559 19.2037 79.86 19.1945L83.9922 25.2905L86.4716 24.7215L86.7195 23.9087L82.6424 18.761C83.581 18.4832 84.3756 17.862 84.8625 17.0253C85.3493 16.1886 85.4914 15.2001 85.2594 14.2635C84.6809 10.8497 80.962 11.202 79.8876 11.202C77.8877 11.4958 75.8545 11.4958 73.8546 11.202L73.524 12.4753C74.052 12.6865 74.5953 12.8586 75.1493 12.9901V22.9876L73.4138 23.4211ZM82.0639 15.2931C82.0639 16.5664 81.2925 18.0024 78.2072 17.3792V13.0985H78.5102C81.265 12.8547 82.0639 13.9384 82.0639 15.2389" fill="#0279C1"/>
<path d="M40.4946 31.0883C37.2593 30.5858 33.9903 30.3232 30.715 30.3026C30.6127 30.3026 30.5147 30.3426 30.4423 30.4137C30.37 30.4848 30.3294 30.5813 30.3294 30.6819V41.2754C30.3288 41.3301 30.3403 41.3843 30.363 41.4343C30.3857 41.4842 30.4192 41.5287 30.4611 41.5648C30.5029 41.6008 30.5522 41.6275 30.6056 41.643C30.6589 41.6586 30.7151 41.6625 30.7701 41.6547C35.3155 41.1941 39.1723 37.1572 40.8251 31.5489C40.8371 31.4971 40.8378 31.4433 40.8273 31.3912C40.8168 31.339 40.7953 31.2897 40.7641 31.2462C40.7329 31.2028 40.6928 31.1663 40.6464 31.1391C40.6 31.1119 40.5482 31.0946 40.4946 31.0883Z" fill="#0279C1"/>
<path d="M34.9313 9.76618C38.4412 12.0989 40.9065 15.6679 41.8183 19.7365C41.8249 19.776 41.8395 19.8137 41.8612 19.8475C41.883 19.8812 41.9114 19.9104 41.9448 19.9331C41.9782 19.9559 42.0159 19.9718 42.0557 19.9799C42.0955 19.988 42.1366 19.9882 42.1764 19.9804C46.2776 19.3481 50.2548 18.0961 53.9669 16.2686C54.007 16.2382 54.0394 16.1992 54.0617 16.1546C54.084 16.11 54.0956 16.0609 54.0956 16.0112C54.0956 15.9615 54.084 15.9124 54.0617 15.8678C54.0394 15.8232 54.007 15.7842 53.9669 15.7538C53.0113 14.9401 51.9885 14.2061 50.9091 13.5593C49.2306 12.6611 47.4801 11.9 45.675 11.2834V7.84256C45.7459 7.20395 46.0452 6.61089 46.5195 6.16922C46.9938 5.72754 47.6123 5.466 48.2645 5.43125H50.3582C50.5507 5.43138 50.7359 5.35804 50.8746 5.22666C51.0133 5.09527 51.0948 4.9161 51.1019 4.72682V0.717001C51.0948 0.527724 51.0133 0.348546 50.8746 0.217165C50.7359 0.0857841 50.5507 0.0124435 50.3582 0.0125734H36.2811C36.0912 0.0125734 35.909 0.0867897 35.7747 0.218895C35.6404 0.351001 35.5649 0.530175 35.5649 0.717001V4.59135C35.5649 4.77818 35.6404 4.95735 35.7747 5.08946C35.909 5.22156 36.0912 5.29578 36.2811 5.29578H38.5676C39.2544 5.29578 39.9131 5.5641 40.3987 6.04171C40.8843 6.51933 41.1571 7.16711 41.1571 7.84256V8.95338V10.1184C39.2033 9.6954 37.2255 9.38779 35.2343 9.19722C35.1576 9.17207 35.0739 9.17793 35.0016 9.21349C34.9292 9.24906 34.8742 9.31143 34.8487 9.38688C34.8231 9.46233 34.829 9.54468 34.8652 9.61581C34.9014 9.68694 34.9648 9.74103 35.0415 9.76618M44.3252 7.84256V10.8499H43.7191V7.38197C43.7968 6.73953 44.0542 6.13091 44.4628 5.62385C44.8713 5.1168 45.4149 4.73123 46.0331 4.51007C45.4747 4.87558 45.0166 5.37095 44.6995 5.95226C44.3823 6.53356 44.2159 7.18285 44.215 7.84256M39.6695 3.75146H36.9148V1.44852H49.5868V3.75146H47.135C46.3254 3.75144 45.5341 3.98849 44.862 4.4324C44.1899 4.87631 43.6673 5.50698 43.361 6.24405C43.0658 5.50483 42.5498 4.87093 41.881 4.42595C41.2122 3.98097 40.4219 3.74581 39.6145 3.75146M40.4684 4.42879C41.196 4.6145 41.8433 5.02571 42.3147 5.60152C42.7861 6.17733 43.0563 6.88713 43.0855 7.62581V10.6332L42.4519 10.4706V9.19722V7.84256C42.4472 7.15392 42.2622 6.47809 41.9148 5.88017C41.5674 5.28225 41.0693 4.78241 40.4684 4.42879Z" fill="#0279C1"/>
<path d="M30.6048 21.037C34.1028 21.0189 37.5939 20.729 41.0455 20.17C39.4753 13.9656 35.288 9.46811 30.3293 9.33264V20.766C30.3293 20.8379 30.3584 20.9068 30.41 20.9576C30.4617 21.0084 30.5318 21.037 30.6048 21.037Z" fill="#0279C1"/>
<path d="M55.3423 16.7019C55.2482 16.6413 55.1381 16.609 55.0255 16.609C54.913 16.609 54.8029 16.6413 54.7087 16.7019C50.9277 18.6969 46.844 20.0783 42.6152 20.793C42.4734 20.8194 42.3477 20.8995 42.2653 21.016C42.1829 21.1325 42.1502 21.2762 42.1744 21.4161C42.4213 22.7661 42.5412 24.1356 42.5325 25.5072C42.5428 27.0173 42.3951 28.5244 42.0918 30.0047C42.0676 30.1447 42.1002 30.2884 42.1827 30.4049C42.2651 30.5214 42.3907 30.6015 42.5325 30.6279C46.6858 31.3244 50.7018 32.6593 54.4333 34.5835C54.5201 34.6494 54.6266 34.6852 54.7363 34.6852C54.8459 34.6852 54.9525 34.6494 55.0393 34.5835C56.4638 33.5251 57.6324 32.1697 58.4612 30.6145C59.2899 29.0592 59.7583 27.3429 59.8326 25.5885C59.7594 23.8998 59.321 22.2458 58.5468 20.7369C57.7725 19.2279 56.6801 17.8985 55.3423 16.8374" fill="#0279C1"/>
<path d="M30.7143 29.4625C34.0817 29.4921 37.4423 29.7637 40.7693 30.2753C40.8184 30.2872 40.8694 30.2887 40.9191 30.2797C40.9688 30.2708 41.016 30.2516 41.0577 30.2235C41.0993 30.1954 41.1344 30.1589 41.1607 30.1164C41.1869 30.074 41.2038 30.0266 41.2101 29.9773C41.5228 28.4887 41.6797 26.9726 41.6784 25.4527C41.686 24.0721 41.5661 22.6937 41.3203 21.3345C41.3003 21.2384 41.2432 21.1537 41.161 21.0981C41.0788 21.0425 40.9779 21.0204 40.8795 21.0365C37.5254 21.5573 34.1373 21.838 30.7419 21.8764C30.6912 21.8764 30.6411 21.8862 30.5943 21.9052C30.5475 21.9243 30.505 21.9522 30.4692 21.9875C30.4333 22.0227 30.4049 22.0645 30.3856 22.1105C30.3662 22.1565 30.3562 22.2059 30.3562 22.2557V29.0832C30.3562 29.1838 30.3968 29.2803 30.4692 29.3514C30.5415 29.4225 30.6396 29.4625 30.7419 29.4625" fill="#0279C1"/>
<path d="M53.7185 35.0715C50.0336 33.2429 46.0849 31.9819 42.0106 31.3326C41.9817 31.3245 41.9514 31.3224 41.9215 31.3263C41.8917 31.3302 41.863 31.34 41.8372 31.3553C41.8113 31.3705 41.789 31.3908 41.7714 31.4148C41.7539 31.4389 41.7416 31.4662 41.7352 31.4952C40.7772 35.5523 38.2339 39.0756 34.6553 41.303C34.6164 41.3336 34.5878 41.3752 34.5733 41.4221C34.5587 41.469 34.5589 41.5191 34.5738 41.5659C34.5886 41.6128 34.6175 41.6541 34.6567 41.6845C34.6958 41.7149 34.7433 41.733 34.7931 41.7365C36.446 41.601 38.0713 41.3572 39.6415 41.0862C38.8976 42.1197 37.91 42.9603 36.7633 43.536C35.6165 44.1117 34.345 44.4053 33.0576 44.3916H32.5617C31.2285 44.3673 29.9232 44.0117 28.7673 43.358C27.6113 42.7043 26.6422 41.7737 25.9502 40.6527C26.9309 41.146 27.9954 41.4583 29.0907 41.5739C29.1436 41.5776 29.1967 41.5706 29.2467 41.5532C29.2967 41.5358 29.3426 41.5085 29.3814 41.4729C29.4201 41.4373 29.451 41.3942 29.4721 41.3463C29.4932 41.2984 29.504 41.2468 29.5039 41.1946V30.6824C29.4969 30.5793 29.4503 30.4828 29.3735 30.4124C29.2968 30.3419 29.1956 30.3028 29.0907 30.3031C27.6306 30.3031 26.1706 30.3031 24.7381 30.4656V29.6528C26.1706 29.6528 27.4929 29.4903 29.1182 29.4632C29.1688 29.4632 29.219 29.4534 29.2658 29.4343C29.3126 29.4152 29.3551 29.3873 29.3909 29.3521C29.4267 29.3168 29.4551 29.275 29.4745 29.229C29.4939 29.183 29.5039 29.1337 29.5039 29.0839V22.2563C29.5039 22.2065 29.4939 22.1572 29.4745 22.1112C29.4551 22.0652 29.4267 22.0233 29.3909 21.9881C29.3551 21.9529 29.3126 21.925 29.2658 21.9059C29.219 21.8868 29.1688 21.877 29.1182 21.877C27.548 21.8499 26.1706 21.6874 24.7932 21.6874V20.8475C26.2532 20.8475 27.7408 21.01 29.2284 21.0371C29.2704 21.0409 29.3128 21.036 29.3528 21.0227C29.3928 21.0094 29.4296 20.9881 29.4607 20.96C29.4918 20.932 29.5166 20.8978 29.5336 20.8598C29.5505 20.8217 29.5591 20.7806 29.559 20.7391V9.22442C27.8477 9.3205 26.1974 9.88339 24.7932 10.85V7.84266C24.8632 7.2084 25.1585 6.61879 25.6272 6.17768C26.0959 5.73658 26.7078 5.47228 27.3551 5.43135H29.4212C29.5397 5.45506 29.6622 5.45002 29.7782 5.41667C29.8943 5.38332 30.0003 5.32265 30.0871 5.23994C30.1739 5.15722 30.2389 5.05493 30.2765 4.94194C30.3141 4.82895 30.3231 4.70865 30.3028 4.59146V0.717107C30.3006 0.610788 30.275 0.506204 30.2275 0.410641C30.1801 0.315078 30.1121 0.230834 30.0281 0.163777C29.9442 0.0967204 29.8465 0.0484634 29.7416 0.022368C29.6368 -0.00372741 29.5275 -0.0070337 29.4212 0.0126794H8.42968C8.23709 0.0125495 8.05196 0.0858901 7.91324 0.217271C7.77452 0.348652 7.69302 0.52783 7.68588 0.717107V4.59146C7.66992 4.6962 7.67728 4.8031 7.70744 4.90477C7.7376 5.00644 7.78985 5.10046 7.86058 5.18033C7.93131 5.26019 8.01882 5.324 8.11708 5.36734C8.21534 5.41068 8.322 5.43252 8.42968 5.43135H10.4682C10.8219 5.4091 11.1765 5.4585 11.51 5.57649C11.8435 5.69447 12.1489 5.87854 12.4071 6.11728C12.6653 6.35603 12.871 6.64437 13.0114 6.96445C13.1517 7.28454 13.2237 7.62955 13.223 7.97813V9.00768V11.7983C11.7488 12.2815 10.3125 12.8701 8.92554 13.5594C7.88556 14.1196 6.88265 14.744 5.92281 15.4288C5.87149 15.4667 5.82984 15.5157 5.80115 15.5722C5.77246 15.6286 5.75752 15.6908 5.75752 15.7539C5.75752 15.817 5.77246 15.8792 5.80115 15.9357C5.82984 15.9921 5.87149 16.0412 5.92281 16.079C8.18958 17.3119 10.5928 18.2846 13.0853 18.978V19.7908C10.1974 19.0307 7.42013 17.9108 4.82089 16.4584C3.40103 17.5231 2.23419 18.8794 1.40162 20.4329C0.569042 21.9863 0.0907354 23.6996 0 25.4534C0.0835514 27.2259 0.563897 28.9584 1.40676 30.5274C2.24961 32.0963 3.43421 33.4629 4.87599 34.5296C4.93894 34.578 5.01651 34.6042 5.09637 34.6042C5.17624 34.6042 5.25381 34.578 5.31676 34.5296C7.77987 33.2363 10.3867 32.2271 13.0853 31.5223V32.5247C10.7518 33.1412 8.48993 33.9947 6.33603 35.0715C6.27898 35.1052 6.23178 35.1529 6.19901 35.2098C6.16624 35.2668 6.14901 35.3312 6.14901 35.3966C6.14901 35.4621 6.16624 35.5264 6.19901 35.5834C6.23178 35.6404 6.27898 35.688 6.33603 35.7217C7.21656 36.3232 8.13687 36.8662 9.09083 37.3473C10.7271 38.2386 12.4421 38.9822 14.2147 39.569H14.4627C15.7044 42.6463 17.8572 45.286 20.6422 47.1458C23.4272 49.0057 26.716 50 30.0824 49.9999H30.3028C33.4722 49.9919 36.5619 49.0223 39.1502 47.2234C41.7386 45.4244 43.6995 42.8839 44.7654 39.9483C46.8857 39.3034 48.9346 38.4502 50.8811 37.4015C51.8432 36.8837 52.7641 36.295 53.6359 35.6405C53.67 35.6182 53.6979 35.588 53.7173 35.5526C53.7366 35.5171 53.7468 35.4775 53.7468 35.4373C53.7468 35.397 53.7366 35.3574 53.7173 35.3219C53.6979 35.2865 53.67 35.2563 53.6359 35.2341M23.3331 8.14069V9.17024V36.6158C23.3331 39.0589 24.3199 41.402 26.0765 43.1295C27.833 44.857 30.2153 45.8276 32.6994 45.8276H33.0576C34.7721 45.812 36.4495 45.3339 37.9068 44.4453C39.3641 43.5567 40.5454 42.2917 41.3219 40.7882H41.6801C40.7237 42.7712 39.2134 44.4457 37.3257 45.6163C35.438 46.7869 33.2506 47.4052 31.019 47.399H30.7711C27.6583 47.3068 24.7075 46.0127 22.5576 43.7969C20.4077 41.581 19.2315 38.6216 19.2836 35.5592V8.8993C19.2828 7.71258 19.7506 6.57193 20.5882 5.71776C21.4259 4.8636 22.568 4.36266 23.7739 4.32052H25.4543C24.8014 4.65891 24.2541 5.16526 23.8708 5.78555C23.4876 6.40585 23.2827 7.11683 23.278 7.84266M9.14592 3.75156V1.44863H28.705V3.75156H23.7739C22.6948 3.75461 21.6433 4.08735 20.7648 4.70377C19.8864 5.32019 19.2244 6.18983 18.8704 7.19242C18.5164 6.18983 17.8544 5.32019 16.9759 4.70377C16.0974 4.08735 15.0459 3.75461 13.9668 3.75156H9.14592ZM30.3028 48.4556H29.8895C25.8175 48.4484 21.9147 46.8525 19.0379 44.0181C16.1611 41.1836 14.5453 37.3424 14.5453 33.3375V9.19733V7.84266C14.5407 7.11683 14.3358 6.40585 13.9525 5.78555C13.5692 5.16526 13.022 4.65891 12.369 4.32052H13.9668C15.1706 4.32724 16.3244 4.79501 17.1833 5.62457C18.0422 6.45414 18.5387 7.58021 18.5673 8.76384V35.5592C18.5746 38.7977 19.8859 41.9015 22.2143 44.1915C24.5427 46.4815 27.6986 47.7711 30.9915 47.7783H31.2394C33.6627 47.7872 36.0348 47.0928 38.0586 45.7819C40.0824 44.471 41.668 42.602 42.6167 40.4089H43.0299C41.9528 42.8363 40.1757 44.9 37.9186 46.3446C35.6615 47.7892 33.0233 48.5514 30.3303 48.5369" fill="#0279C1"/>
</svg>
