<svg width="60" height="50" viewBox="0 0 60 50" fill="none" xmlns="http://www.w3.org/2000/svg">
<path d="M40.4943 31.0883C37.2591 30.5858 33.99 30.3232 30.7148 30.3026C30.6125 30.3026 30.5144 30.3426 30.4421 30.4137C30.3698 30.4848 30.3291 30.5813 30.3291 30.6819V41.2754C30.3286 41.3301 30.34 41.3843 30.3628 41.4343C30.3855 41.4842 30.4189 41.5287 30.4608 41.5648C30.5027 41.6008 30.552 41.6275 30.6053 41.643C30.6587 41.6586 30.7148 41.6625 30.7699 41.6547C35.3153 41.1941 39.172 37.1572 40.8249 31.5489C40.8369 31.4971 40.8376 31.4433 40.8271 31.3912C40.8166 31.339 40.795 31.2897 40.7639 31.2462C40.7327 31.2028 40.6926 31.1663 40.6462 31.1391C40.5997 31.1119 40.548 31.0946 40.4943 31.0883Z" fill="#0279C1"/>
<path d="M34.9313 9.76618C38.4412 12.0989 40.9065 15.6679 41.8183 19.7365C41.8249 19.776 41.8395 19.8137 41.8612 19.8475C41.883 19.8812 41.9114 19.9104 41.9448 19.9331C41.9782 19.9559 42.0159 19.9718 42.0557 19.9799C42.0955 19.988 42.1366 19.9882 42.1764 19.9804C46.2776 19.3481 50.2548 18.0961 53.9669 16.2686C54.007 16.2382 54.0394 16.1992 54.0617 16.1546C54.084 16.11 54.0956 16.0609 54.0956 16.0112C54.0956 15.9615 54.084 15.9124 54.0617 15.8678C54.0394 15.8232 54.007 15.7842 53.9669 15.7538C53.0113 14.9401 51.9885 14.2061 50.9091 13.5593C49.2306 12.6611 47.4801 11.9 45.675 11.2834V7.84256C45.7459 7.20395 46.0452 6.61089 46.5195 6.16922C46.9938 5.72754 47.6123 5.466 48.2645 5.43125H50.3582C50.5507 5.43138 50.7359 5.35804 50.8746 5.22666C51.0133 5.09527 51.0948 4.9161 51.1019 4.72682V0.717001C51.0948 0.527724 51.0133 0.348546 50.8746 0.217165C50.7359 0.0857841 50.5507 0.0124435 50.3582 0.0125734H36.2811C36.0912 0.0125734 35.909 0.0867897 35.7747 0.218895C35.6404 0.351001 35.5649 0.530175 35.5649 0.717001V4.59135C35.5649 4.77818 35.6404 4.95735 35.7747 5.08946C35.909 5.22156 36.0912 5.29578 36.2811 5.29578H38.5676C39.2544 5.29578 39.9131 5.5641 40.3987 6.04171C40.8843 6.51933 41.1571 7.16711 41.1571 7.84256V8.95338V10.1184C39.2033 9.6954 37.2255 9.38779 35.2343 9.19722C35.1576 9.17207 35.0739 9.17793 35.0016 9.21349C34.9292 9.24906 34.8742 9.31143 34.8487 9.38688C34.8231 9.46233 34.829 9.54468 34.8652 9.61581C34.9014 9.68694 34.9648 9.74103 35.0415 9.76618M44.3252 7.84256V10.8499H43.7191V7.38197C43.7968 6.73953 44.0542 6.13091 44.4628 5.62385C44.8713 5.1168 45.4149 4.73123 46.0331 4.51007C45.4747 4.87558 45.0166 5.37095 44.6995 5.95226C44.3823 6.53356 44.2159 7.18285 44.215 7.84256M39.6695 3.75146H36.9148V1.44852H49.5868V3.75146H47.135C46.3254 3.75144 45.5341 3.98849 44.862 4.4324C44.1899 4.87631 43.6673 5.50698 43.361 6.24405C43.0658 5.50483 42.5498 4.87093 41.881 4.42595C41.2122 3.98097 40.4219 3.74581 39.6145 3.75146M40.4684 4.42879C41.196 4.6145 41.8433 5.02571 42.3147 5.60152C42.7861 6.17733 43.0563 6.88713 43.0855 7.62581V10.6332L42.4519 10.4706V9.19722V7.84256C42.4472 7.15392 42.2622 6.47809 41.9148 5.88017C41.5674 5.28225 41.0693 4.78241 40.4684 4.42879Z" fill="#0279C1"/>
<path d="M30.6046 21.037C34.1026 21.0189 37.5937 20.729 41.0453 20.17C39.475 13.9656 35.2877 9.46811 30.3291 9.33264V20.766C30.3291 20.8379 30.3581 20.9068 30.4098 20.9576C30.4614 21.0084 30.5315 21.037 30.6046 21.037Z" fill="#0279C1"/>
<path d="M55.3423 16.7019C55.2482 16.6413 55.1381 16.609 55.0255 16.609C54.913 16.609 54.8029 16.6413 54.7087 16.7019C50.9277 18.6969 46.844 20.0783 42.6152 20.793C42.4734 20.8194 42.3477 20.8995 42.2653 21.016C42.1829 21.1325 42.1502 21.2762 42.1744 21.4161C42.4213 22.7661 42.5412 24.1356 42.5325 25.5072C42.5428 27.0173 42.3951 28.5244 42.0918 30.0047C42.0676 30.1447 42.1002 30.2884 42.1827 30.4049C42.2651 30.5214 42.3907 30.6015 42.5325 30.6279C46.6858 31.3244 50.7018 32.6593 54.4333 34.5835C54.5201 34.6494 54.6266 34.6852 54.7363 34.6852C54.8459 34.6852 54.9525 34.6494 55.0393 34.5835C56.4638 33.5251 57.6324 32.1697 58.4612 30.6145C59.2899 29.0592 59.7583 27.3429 59.8326 25.5885C59.7594 23.8998 59.321 22.2458 58.5468 20.7369C57.7725 19.2279 56.6801 17.8985 55.3423 16.8374" fill="#0279C1"/>
<path d="M30.7146 29.4625C34.0819 29.4921 37.4425 29.7637 40.7696 30.2753C40.8186 30.2872 40.8697 30.2887 40.9194 30.2797C40.9691 30.2708 41.0163 30.2516 41.0579 30.2235C41.0995 30.1954 41.1346 30.1589 41.1609 30.1164C41.1872 30.074 41.204 30.0266 41.2103 29.9773C41.523 28.4887 41.68 26.9726 41.6787 25.4527C41.6862 24.0721 41.5664 22.6937 41.3205 21.3345C41.3005 21.2384 41.2434 21.1537 41.1612 21.0981C41.079 21.0425 40.9782 21.0204 40.8798 21.0365C37.5257 21.5573 34.1375 21.838 30.7421 21.8764C30.6915 21.8764 30.6413 21.8862 30.5945 21.9052C30.5477 21.9243 30.5052 21.9522 30.4694 21.9875C30.4336 22.0227 30.4052 22.0645 30.3858 22.1105C30.3664 22.1565 30.3564 22.2059 30.3564 22.2557V29.0832C30.3564 29.1838 30.3971 29.2803 30.4694 29.3514C30.5417 29.4225 30.6398 29.4625 30.7421 29.4625" fill="#0279C1"/>
<path d="M53.7185 35.0715C50.0336 33.2429 46.0849 31.9819 42.0106 31.3326C41.9817 31.3245 41.9514 31.3224 41.9215 31.3263C41.8917 31.3302 41.863 31.34 41.8372 31.3553C41.8113 31.3705 41.789 31.3908 41.7714 31.4148C41.7539 31.4389 41.7416 31.4662 41.7352 31.4952C40.7772 35.5523 38.2339 39.0756 34.6553 41.303C34.6164 41.3336 34.5878 41.3752 34.5733 41.4221C34.5587 41.469 34.5589 41.5191 34.5738 41.5659C34.5886 41.6128 34.6175 41.6541 34.6567 41.6845C34.6958 41.7149 34.7433 41.733 34.7931 41.7365C36.446 41.601 38.0713 41.3572 39.6415 41.0862C38.8976 42.1197 37.91 42.9603 36.7633 43.536C35.6165 44.1117 34.345 44.4053 33.0576 44.3916H32.5617C31.2285 44.3673 29.9232 44.0117 28.7673 43.358C27.6113 42.7043 26.6422 41.7737 25.9502 40.6527C26.9309 41.146 27.9954 41.4583 29.0907 41.5739C29.1436 41.5776 29.1967 41.5706 29.2467 41.5532C29.2967 41.5358 29.3426 41.5085 29.3814 41.4729C29.4201 41.4373 29.451 41.3942 29.4721 41.3463C29.4932 41.2984 29.504 41.2468 29.5039 41.1946V30.6824C29.4969 30.5793 29.4503 30.4828 29.3735 30.4124C29.2968 30.3419 29.1956 30.3028 29.0907 30.3031C27.6306 30.3031 26.1706 30.3031 24.7381 30.4656V29.6528C26.1706 29.6528 27.4929 29.4903 29.1182 29.4632C29.1688 29.4632 29.219 29.4534 29.2658 29.4343C29.3126 29.4152 29.3551 29.3873 29.3909 29.3521C29.4267 29.3168 29.4551 29.275 29.4745 29.229C29.4939 29.183 29.5039 29.1337 29.5039 29.0839V22.2563C29.5039 22.2065 29.4939 22.1572 29.4745 22.1112C29.4551 22.0652 29.4267 22.0233 29.3909 21.9881C29.3551 21.9529 29.3126 21.925 29.2658 21.9059C29.219 21.8868 29.1688 21.877 29.1182 21.877C27.548 21.8499 26.1706 21.6874 24.7932 21.6874V20.8475C26.2532 20.8475 27.7408 21.01 29.2284 21.0371C29.2704 21.0409 29.3128 21.036 29.3528 21.0227C29.3928 21.0094 29.4296 20.9881 29.4607 20.96C29.4918 20.932 29.5166 20.8978 29.5336 20.8598C29.5505 20.8217 29.5591 20.7806 29.559 20.7391V9.22442C27.8477 9.3205 26.1974 9.88339 24.7932 10.85V7.84266C24.8632 7.2084 25.1585 6.61879 25.6272 6.17768C26.0959 5.73658 26.7078 5.47228 27.3551 5.43135H29.4212C29.5397 5.45506 29.6622 5.45002 29.7782 5.41667C29.8943 5.38332 30.0003 5.32265 30.0871 5.23994C30.1739 5.15722 30.2389 5.05493 30.2765 4.94194C30.3141 4.82895 30.3231 4.70865 30.3028 4.59146V0.717107C30.3006 0.610788 30.275 0.506204 30.2275 0.410641C30.1801 0.315078 30.1121 0.230834 30.0281 0.163777C29.9442 0.0967204 29.8465 0.0484634 29.7416 0.022368C29.6368 -0.00372741 29.5275 -0.0070337 29.4212 0.0126794H8.42968C8.23709 0.0125495 8.05196 0.0858901 7.91324 0.217271C7.77452 0.348652 7.69302 0.52783 7.68588 0.717107V4.59146C7.66992 4.6962 7.67728 4.8031 7.70744 4.90477C7.7376 5.00644 7.78985 5.10046 7.86058 5.18033C7.93131 5.26019 8.01882 5.324 8.11708 5.36734C8.21534 5.41068 8.322 5.43252 8.42968 5.43135H10.4682C10.8219 5.4091 11.1765 5.4585 11.51 5.57649C11.8435 5.69447 12.1489 5.87854 12.4071 6.11728C12.6653 6.35603 12.871 6.64437 13.0114 6.96445C13.1517 7.28454 13.2237 7.62955 13.223 7.97813V9.00768V11.7983C11.7488 12.2815 10.3125 12.8701 8.92554 13.5594C7.88556 14.1196 6.88265 14.744 5.92281 15.4288C5.87149 15.4667 5.82984 15.5157 5.80115 15.5722C5.77246 15.6286 5.75752 15.6908 5.75752 15.7539C5.75752 15.817 5.77246 15.8792 5.80115 15.9357C5.82984 15.9921 5.87149 16.0412 5.92281 16.079C8.18958 17.3119 10.5928 18.2846 13.0853 18.978V19.7908C10.1974 19.0307 7.42013 17.9108 4.82089 16.4584C3.40103 17.5231 2.23419 18.8794 1.40162 20.4329C0.569042 21.9863 0.0907354 23.6996 0 25.4534C0.0835514 27.2259 0.563897 28.9584 1.40676 30.5274C2.24961 32.0963 3.43421 33.4629 4.87599 34.5296C4.93894 34.578 5.01651 34.6042 5.09637 34.6042C5.17624 34.6042 5.25381 34.578 5.31676 34.5296C7.77987 33.2363 10.3867 32.2271 13.0853 31.5223V32.5247C10.7518 33.1412 8.48993 33.9947 6.33603 35.0715C6.27898 35.1052 6.23178 35.1529 6.19901 35.2098C6.16624 35.2668 6.14901 35.3312 6.14901 35.3966C6.14901 35.4621 6.16624 35.5264 6.19901 35.5834C6.23178 35.6404 6.27898 35.688 6.33603 35.7217C7.21656 36.3232 8.13687 36.8662 9.09083 37.3473C10.7271 38.2386 12.4421 38.9822 14.2147 39.569H14.4627C15.7044 42.6463 17.8572 45.286 20.6422 47.1458C23.4272 49.0057 26.716 50 30.0824 49.9999H30.3028C33.4722 49.9919 36.5619 49.0223 39.1502 47.2234C41.7386 45.4244 43.6995 42.8839 44.7654 39.9483C46.8857 39.3034 48.9346 38.4502 50.8811 37.4015C51.8432 36.8837 52.7641 36.295 53.6359 35.6405C53.67 35.6182 53.6979 35.588 53.7173 35.5526C53.7366 35.5171 53.7468 35.4775 53.7468 35.4373C53.7468 35.397 53.7366 35.3574 53.7173 35.3219C53.6979 35.2865 53.67 35.2563 53.6359 35.2341M23.3331 8.14069V9.17024V36.6158C23.3331 39.0589 24.3199 41.402 26.0765 43.1295C27.833 44.857 30.2153 45.8276 32.6994 45.8276H33.0576C34.7721 45.812 36.4495 45.3339 37.9068 44.4453C39.3641 43.5567 40.5454 42.2917 41.3219 40.7882H41.6801C40.7237 42.7712 39.2134 44.4457 37.3257 45.6163C35.438 46.7869 33.2506 47.4052 31.019 47.399H30.7711C27.6583 47.3068 24.7075 46.0127 22.5576 43.7969C20.4077 41.581 19.2315 38.6216 19.2836 35.5592V8.8993C19.2828 7.71258 19.7506 6.57193 20.5882 5.71776C21.4259 4.8636 22.568 4.36266 23.7739 4.32052H25.4543C24.8014 4.65891 24.2541 5.16526 23.8708 5.78555C23.4876 6.40585 23.2827 7.11683 23.278 7.84266M9.14592 3.75156V1.44863H28.705V3.75156H23.7739C22.6948 3.75461 21.6433 4.08735 20.7648 4.70377C19.8864 5.32019 19.2244 6.18983 18.8704 7.19242C18.5164 6.18983 17.8544 5.32019 16.9759 4.70377C16.0974 4.08735 15.0459 3.75461 13.9668 3.75156H9.14592ZM30.3028 48.4556H29.8895C25.8175 48.4484 21.9147 46.8525 19.0379 44.0181C16.1611 41.1836 14.5453 37.3424 14.5453 33.3375V9.19733V7.84266C14.5407 7.11683 14.3358 6.40585 13.9525 5.78555C13.5692 5.16526 13.022 4.65891 12.369 4.32052H13.9668C15.1706 4.32724 16.3244 4.79501 17.1833 5.62457C18.0422 6.45414 18.5387 7.58021 18.5673 8.76384V35.5592C18.5746 38.7977 19.8859 41.9015 22.2143 44.1915C24.5427 46.4815 27.6986 47.7711 30.9915 47.7783H31.2394C33.6627 47.7872 36.0348 47.0928 38.0586 45.7819C40.0824 44.471 41.668 42.602 42.6167 40.4089H43.0299C41.9528 42.8363 40.1757 44.9 37.9186 46.3446C35.6615 47.7892 33.0233 48.5514 30.3303 48.5369" fill="#0279C1"/>
</svg>
