<svg width="24" height="21" viewBox="0 0 24 21" fill="none" xmlns="http://www.w3.org/2000/svg">
<path fill-rule="evenodd" clip-rule="evenodd" d="M1.63737 9.12785C8.03365 6.34088 12.2991 4.50336 14.4337 3.61529C20.5285 1.07948 21.7936 0.638549 22.6197 0.625526C22.9229 0.618329 23.2206 0.707575 23.4699 0.880409C23.6443 1.03248 23.7557 1.24408 23.7825 1.4739C23.8269 1.76 23.8394 2.05015 23.8197 2.33901C23.4885 5.80878 22.0597 14.2292 21.3323 18.1139C21.0253 19.7586 20.4206 20.3111 19.8327 20.3651C18.5583 20.4823 17.5909 19.5223 16.3574 18.713C14.4262 17.4479 13.3341 16.6665 11.4606 15.4237C9.29319 13.9967 10.6978 13.2116 11.9332 11.9297C12.2569 11.593 17.8699 6.48599 17.9797 6.02274C17.9938 5.95471 17.9919 5.88435 17.9741 5.81719C17.9564 5.75004 17.9232 5.68793 17.8774 5.63576C17.8107 5.59274 17.7347 5.56624 17.6558 5.55848C17.5768 5.55071 17.4972 5.5619 17.4234 5.59111C17.2299 5.63576 14.1447 7.67483 8.16761 11.7083C7.29071 12.3111 6.49752 12.6044 5.78806 12.5883C5.00295 12.5716 3.49598 12.1455 2.37598 11.7809C1.00296 11.3344 -0.0891359 11.0981 0.00574779 10.339C0.0541199 9.94212 0.597988 9.53839 1.63737 9.12785Z" fill="#E5E5E5"/>
</svg>
